<svg width="469" height="194" viewBox="0 0 469 194" fill="none" xmlns="http://www.w3.org/2000/svg">
<g clip-path="url(#clip0_27_264)">
<path d="M0.5 16C0.5 7.43959 7.43959 0.5 16 0.5H453C461.56 0.5 468.5 7.43959 468.5 16V178C468.5 186.56 461.56 193.5 453 193.5H16C7.43959 193.5 0.5 186.56 0.5 178V16Z" fill="url(#paint0_linear_27_264)" stroke="#FF2B01"/>
<rect x="16.7189" y="20.2288" width="417.991" height="159.023" stroke="#FF2B01"/>
<path d="M104.575 32.8248H91.9666V29.6888H104.575V27.7848H92.0146C92.3026 25.5128 93.3746 24.6328 96.1106 24.6328H104.575V22.7448H96.0466C92.2226 22.7448 90.0786 24.9848 90.0786 28.6968V34.7288H104.575V32.8248ZM120.78 22.7448H118.908V31.8168L106.268 21.7208V34.7288H108.172V25.6568L120.78 35.7528V22.7448ZM137.121 32.8248H124.513V29.6888H137.121V27.7848H124.561C124.849 25.5128 125.921 24.6328 128.657 24.6328H137.121V22.7448H128.593C124.769 22.7448 122.625 24.9848 122.625 28.6968V34.7288H137.121V32.8248ZM148.639 29.6888H153.215V22.7448H144.687C140.863 22.7448 138.719 24.9848 138.719 28.6968V34.7288H140.607V29.6888H145.647L152.447 35.0968L153.631 33.6408L148.639 29.6888ZM140.719 27.7848C141.215 25.0968 143.103 24.6328 144.447 24.6328H151.343V27.7848H140.719ZM161.32 27.7848V29.6888H167.512C167.048 32.0888 166.216 32.8248 163.496 32.8248H156.904V28.7768C156.904 25.7048 157.912 24.6328 161.048 24.6328H169.512V22.7448H160.984C157.176 22.7448 155.016 24.9528 155.016 28.6968V34.7288H163.544C167.592 34.7288 169.256 33.0168 169.56 27.7848H161.32ZM183.701 22.7448V27.7848H172.965V22.7448H171.077V29.6888H183.653C183.397 31.9448 182.245 32.8248 179.557 32.8248H171.077V34.7288H179.621C183.413 34.7288 185.573 32.5048 185.573 28.7768V22.7448H183.701ZM207.746 32.8248H195.138V28.7768C195.138 25.7368 196.258 24.6328 199.282 24.6328H207.746V22.7448H199.218C195.41 22.7448 193.25 24.9528 193.25 28.6968V34.7288H207.746V32.8248ZM215.187 22.7448C211.379 22.7448 209.219 24.9688 209.219 28.6968V34.7288H217.763C221.571 34.7288 223.715 32.5048 223.715 28.7768V22.7448H215.187ZM221.843 28.6968C221.843 31.7528 220.755 32.8248 217.699 32.8248H211.107V28.7768C211.107 25.7368 212.211 24.6328 215.251 24.6328H221.843V28.6968ZM240.062 22.7448H238.19V31.8168L225.55 21.7208V34.7288H227.454V25.6568L240.062 35.7528V22.7448ZM243.891 27.7848C244.259 25.8648 245.203 24.6328 247.603 24.6328H256.371V22.7448H247.699C244.099 22.7448 242.099 24.5368 241.811 29.6888H254.371C253.891 32.1368 253.059 32.8248 250.355 32.8248H241.875V34.7288H250.419C254.435 34.7288 256.115 33.0168 256.419 27.7848H243.891ZM270.623 22.7448V28.7608C270.623 31.8808 269.327 32.8248 264.991 32.8248H260.063V22.7448H258.159V34.7288H266.543C270.335 34.7288 272.495 32.5048 272.495 28.7768V22.7448H270.623ZM293.803 22.7448H289.003C287.755 22.7448 285.995 23.0488 284.955 23.9768V22.7448H280.203C276.571 22.7448 274.235 24.9368 274.235 28.1528V34.7288H276.139V28.7768C276.139 25.7208 277.227 24.6328 280.251 24.6328H283.051V34.7128H284.955V28.7768C284.955 25.7368 286.059 24.6328 289.099 24.6328H291.899V34.7288H293.803V22.7448ZM310.121 22.7448H301.577C297.785 22.7448 295.625 24.9528 295.625 28.6968V34.7288H297.513V29.6888H310.121V22.7448ZM297.609 27.7848C297.913 25.1768 298.857 24.6328 301.753 24.6328H308.249V27.7848H297.609ZM325.416 22.7448H317.064C313 22.7448 311.32 24.5208 311.064 29.6248L312.92 29.7368C313.096 26.5688 313.432 25.7688 314.52 25.1768C315.16 24.8248 316.12 24.6328 317.416 24.6328V34.7288H319.32V24.6328H325.416V22.7448ZM328.531 22.7448H326.643V34.7288H328.531V22.7448ZM336.343 22.7448C332.535 22.7448 330.375 24.9688 330.375 28.6968V34.7288H338.919C342.727 34.7288 344.871 32.5048 344.871 28.7768V22.7448H336.343ZM342.999 28.6968C342.999 31.7528 341.911 32.8248 338.855 32.8248H332.263V28.7768C332.263 25.7368 333.367 24.6328 336.407 24.6328H342.999V28.6968ZM361.218 22.7448H359.346V31.8168L346.706 21.7208V34.7288H348.61V25.6568L361.218 35.7528V22.7448Z" fill="white"/>
</g>
<defs>
<linearGradient id="paint0_linear_27_264" x1="39.865" y1="-4.8559e-07" x2="541.808" y2="74.5997" gradientUnits="userSpaceOnUse">
<stop offset="0.0333966" stop-color="#FF4101" stop-opacity="0.31"/>
<stop offset="1" stop-color="#B8FF01" stop-opacity="0"/>
</linearGradient>
<clipPath id="clip0_27_264">
<rect width="469" height="194" fill="white"/>
</clipPath>
</defs>
</svg>
