<svg width="480" height="654" viewBox="0 0 480 654" fill="none" xmlns="http://www.w3.org/2000/svg">
<g clip-path="url(#clip0_52_1800)" filter="url(#filter0_d_52_1800)">
<g filter="url(#filter1_d_52_1800)">
<rect x="4" width="472" height="646" rx="50" fill="#1E1E1E"/>
</g>
<g filter="url(#filter2_d_52_1800)">
<path d="M167.451 539.831L65.9665 613.172H40.9162L147.71 536.786L29.2345 489.841L4 513.365V489.841L18.5028 479.255L4 475.726V462.788L29.2345 471.215V444.176L4 434.559V422.209L22.9259 425.738L108.379 396.333L4 369.868V356.93L116.408 316.351L4 284.594V272.832L137.628 310.47L222.508 280.477L4 221.079V197.556L100.35 165.797L4 138.745V124.043L126.158 157.564L290.756 94.638C299.358 92.8726 317.711 83.464 347.533 90.5213L450.192 118.75L476 111.105V124.043L274.697 197.556C281.006 200.888 299.817 208.847 324.593 214.022L476 162.27V175.208L435.129 192.262L476 197.556V211.081C460.515 210.101 421.063 205.2 405.464 205.2C361.112 221.471 265.657 248.843 256.48 253.548L241.318 319.292C308.993 319.88 455.812 321.997 476 325.761V338.111C416.928 338.896 284.905 338.582 241.318 331.054C234.054 351.638 223.426 396.098 227.096 409.272H476V422.209C404.885 421.621 248.723 417.975 229.453 422.209C201.765 438.092 163.531 460.4 181.33 482.031L270.683 523.951C278.33 522.971 297.753 521.01 314.27 521.01C346.004 522.775 422.778 531.126 476 550.415V563.355C428.399 548.26 325.281 522.423 293.623 539.831C308.152 545.319 341.684 557.709 359.577 563.355C381.944 567.275 436.542 575.117 476 575.117V586.878C438.148 586.878 352.81 582.174 314.27 563.355L262.654 539.831H167.451Z" fill="#2B2B2B"/>
<path d="M294.77 106.74L146.804 165.423L252.693 192.852L434.707 126.415C396.549 111.99 313.123 98.7561 294.77 106.74Z" fill="#1E1E1E"/>
<path d="M119.928 174.456L15.866 210.983L236.885 267.743C236.885 255.553 236.885 243.364 256.943 236.315L307.899 221.099L119.928 174.456Z" fill="#1E1E1E"/>
<path d="M233.408 288.023L151.665 317.09C157.591 321.599 196.392 322.736 224.838 317.09L233.408 288.023Z" fill="#1E1E1E"/>
<path d="M137.055 322.823L25.7941 361.637L131.32 387.514L218.905 358.325L228.134 329.934C206.38 334.666 152.324 337.369 137.055 322.823Z" fill="#1E1E1E"/>
<path d="M131.32 403.978L45.8667 435.147L150.819 462.788L200.141 418.093L131.32 403.978Z" fill="#1E1E1E"/>
<path d="M43.5724 446.323V481.356L81.4241 496.312C105.52 507.719 165.501 535.832 237.993 524.54C209.317 514.739 166.716 498.076 158.916 479.257L43.5724 446.323Z" fill="#1E1E1E"/>
<path d="M215.609 327.396L155.62 343.774L207.039 352.811L215.609 327.396Z" fill="#1E1E1E"/>
</g>
<ellipse cx="215.609" cy="395.69" rx="59.9888" ry="40.4483" fill="#CFF80B" fill-opacity="0.12"/>
<ellipse cx="214.95" cy="395.69" rx="46.1452" ry="31.069" fill="#F87A0B"/>
<path d="M217.474 379.613L197.482 399.64C196.25 400.875 197.173 402.933 198.899 402.799L214.36 401.598C214.744 401.568 215.126 401.656 215.452 401.851L227.422 408.978C228.931 409.877 230.779 408.349 230.179 406.699L220.554 380.24C220.092 378.97 218.45 378.636 217.474 379.613Z" fill="black"/>
<rect x="34.324" y="23.4483" width="411.352" height="117.241" rx="7" fill="#292929" fill-opacity="0.84"/>
<path d="M76.0176 105.517H65.9664V68.1465H104.915V52.7586L130.042 71.444L104.915 91.2284V78.0388H76.0176V105.517Z" fill="#F8820B"/>
<path d="M221.262 51.7766C221.042 50.8526 220.657 50.1596 220.107 49.6976C219.579 49.2356 218.809 49.0046 217.797 49.0046C216.279 49.0046 215.157 49.6206 214.431 50.8526C213.727 52.0626 213.364 54.0426 213.342 56.7926C213.87 55.9126 214.64 55.2306 215.652 54.7466C216.664 54.2406 217.764 53.9876 218.952 53.9876C220.382 53.9876 221.647 54.2956 222.747 54.9116C223.847 55.5276 224.705 56.4296 225.321 57.6176C225.937 58.7836 226.245 60.1916 226.245 61.8416C226.245 63.4036 225.926 64.8006 225.288 66.0326C224.672 67.2426 223.759 68.1886 222.549 68.8706C221.339 69.5526 219.898 69.8936 218.226 69.8936C215.938 69.8936 214.134 69.3876 212.814 68.3756C211.516 67.3636 210.603 65.9556 210.075 64.1516C209.569 62.3256 209.316 60.0816 209.316 57.4196C209.316 53.3936 210.009 50.3576 211.395 48.3116C212.781 46.2436 214.97 45.2096 217.962 45.2096C220.272 45.2096 222.065 45.8366 223.341 47.0906C224.617 48.3446 225.354 49.9066 225.552 51.7766H221.262ZM217.896 57.7826C216.73 57.7826 215.751 58.1236 214.959 58.8056C214.167 59.4876 213.771 60.4776 213.771 61.7756C213.771 63.0736 214.134 64.0966 214.86 64.8446C215.608 65.5926 216.653 65.9666 217.995 65.9666C219.183 65.9666 220.118 65.6036 220.8 64.8776C221.504 64.1516 221.856 63.1726 221.856 61.9406C221.856 60.6646 221.515 59.6526 220.833 58.9046C220.173 58.1566 219.194 57.7826 217.896 57.7826ZM229.896 57.4856C229.896 53.6796 230.578 50.6986 231.942 48.5426C233.328 46.3866 235.616 45.3086 238.806 45.3086C241.996 45.3086 244.273 46.3866 245.637 48.5426C247.023 50.6986 247.716 53.6796 247.716 57.4856C247.716 61.3136 247.023 64.3166 245.637 66.4946C244.273 68.6726 241.996 69.7616 238.806 69.7616C235.616 69.7616 233.328 68.6726 231.942 66.4946C230.578 64.3166 229.896 61.3136 229.896 57.4856ZM243.162 57.4856C243.162 55.8576 243.052 54.4936 242.832 53.3936C242.634 52.2716 242.216 51.3586 241.578 50.6546C240.962 49.9506 240.038 49.5986 238.806 49.5986C237.574 49.5986 236.639 49.9506 236.001 50.6546C235.385 51.3586 234.967 52.2716 234.747 53.3936C234.549 54.4936 234.45 55.8576 234.45 57.4856C234.45 59.1576 234.549 60.5656 234.747 61.7096C234.945 62.8316 235.363 63.7446 236.001 64.4486C236.639 65.1306 237.574 65.4716 238.806 65.4716C240.038 65.4716 240.973 65.1306 241.611 64.4486C242.249 63.7446 242.667 62.8316 242.865 61.7096C243.063 60.5656 243.162 59.1576 243.162 57.4856ZM251.23 57.4856C251.23 53.6796 251.912 50.6986 253.276 48.5426C254.662 46.3866 256.95 45.3086 260.14 45.3086C263.33 45.3086 265.607 46.3866 266.971 48.5426C268.357 50.6986 269.05 53.6796 269.05 57.4856C269.05 61.3136 268.357 64.3166 266.971 66.4946C265.607 68.6726 263.33 69.7616 260.14 69.7616C256.95 69.7616 254.662 68.6726 253.276 66.4946C251.912 64.3166 251.23 61.3136 251.23 57.4856ZM264.496 57.4856C264.496 55.8576 264.386 54.4936 264.166 53.3936C263.968 52.2716 263.55 51.3586 262.912 50.6546C262.296 49.9506 261.372 49.5986 260.14 49.5986C258.908 49.5986 257.973 49.9506 257.335 50.6546C256.719 51.3586 256.301 52.2716 256.081 53.3936C255.883 54.4936 255.784 55.8576 255.784 57.4856C255.784 59.1576 255.883 60.5656 256.081 61.7096C256.279 62.8316 256.697 63.7446 257.335 64.4486C257.973 65.1306 258.908 65.4716 260.14 65.4716C261.372 65.4716 262.307 65.1306 262.945 64.4486C263.583 63.7446 264.001 62.8316 264.199 61.7096C264.397 60.5656 264.496 59.1576 264.496 57.4856ZM295.796 51.2816C298.04 51.2816 299.844 51.9746 301.208 53.3606C302.594 54.7246 303.287 56.6386 303.287 59.1026V69.8276H298.667V59.7296C298.667 58.2996 298.304 57.2106 297.578 56.4626C296.852 55.6926 295.862 55.3076 294.608 55.3076C293.354 55.3076 292.353 55.6926 291.605 56.4626C290.879 57.2106 290.516 58.2996 290.516 59.7296V69.8276H285.896V59.7296C285.896 58.2996 285.533 57.2106 284.807 56.4626C284.081 55.6926 283.091 55.3076 281.837 55.3076C280.561 55.3076 279.549 55.6926 278.801 56.4626C278.075 57.2106 277.712 58.2996 277.712 59.7296V69.8276H273.092V51.5456H277.712V53.7566C278.306 52.9866 279.065 52.3816 279.989 51.9416C280.935 51.5016 281.969 51.2816 283.091 51.2816C284.521 51.2816 285.797 51.5896 286.919 52.2056C288.041 52.7996 288.91 53.6576 289.526 54.7796C290.12 53.7236 290.978 52.8766 292.1 52.2386C293.244 51.6006 294.476 51.2816 295.796 51.2816Z" fill="white"/>
<path d="M158.455 98.0233V108.448H156.745V98.0233H158.455ZM164.87 100.048C165.52 100.048 166.1 100.183 166.61 100.453C167.13 100.723 167.535 101.123 167.825 101.653C168.115 102.183 168.26 102.823 168.26 103.573V108.448H166.565V103.828C166.565 103.088 166.38 102.523 166.01 102.133C165.64 101.733 165.135 101.533 164.495 101.533C163.855 101.533 163.345 101.733 162.965 102.133C162.595 102.523 162.41 103.088 162.41 103.828V108.448H160.7V100.183H162.41V101.128C162.69 100.788 163.045 100.523 163.475 100.333C163.915 100.143 164.38 100.048 164.87 100.048ZM181.163 98.9833H176.138V101.968C176.348 101.688 176.658 101.453 177.068 101.263C177.488 101.073 177.933 100.978 178.403 100.978C179.243 100.978 179.923 101.158 180.443 101.518C180.973 101.878 181.348 102.333 181.568 102.883C181.798 103.433 181.913 104.013 181.913 104.623C181.913 105.363 181.768 106.023 181.478 106.603C181.198 107.173 180.773 107.623 180.203 107.953C179.643 108.283 178.953 108.448 178.133 108.448C177.043 108.448 176.168 108.178 175.508 107.638C174.848 107.098 174.453 106.383 174.323 105.493H175.988C176.098 105.963 176.343 106.338 176.723 106.618C177.103 106.888 177.578 107.023 178.148 107.023C178.858 107.023 179.388 106.808 179.738 106.378C180.098 105.948 180.278 105.378 180.278 104.668C180.278 103.948 180.098 103.398 179.738 103.018C179.378 102.628 178.848 102.433 178.148 102.433C177.658 102.433 177.243 102.558 176.903 102.808C176.573 103.048 176.333 103.378 176.183 103.798H174.563V97.4833H181.163V98.9833ZM183.693 102.838C183.693 101.108 183.983 99.7583 184.563 98.7883C185.153 97.8083 186.163 97.3183 187.593 97.3183C189.023 97.3183 190.028 97.8083 190.608 98.7883C191.198 99.7583 191.493 101.108 191.493 102.838C191.493 104.588 191.198 105.958 190.608 106.948C190.028 107.928 189.023 108.418 187.593 108.418C186.163 108.418 185.153 107.928 184.563 106.948C183.983 105.958 183.693 104.588 183.693 102.838ZM189.813 102.838C189.813 102.028 189.758 101.343 189.648 100.783C189.548 100.223 189.338 99.7683 189.018 99.4183C188.698 99.0583 188.223 98.8783 187.593 98.8783C186.963 98.8783 186.488 99.0583 186.168 99.4183C185.848 99.7683 185.633 100.223 185.523 100.783C185.423 101.343 185.373 102.028 185.373 102.838C185.373 103.678 185.423 104.383 185.523 104.953C185.623 105.523 185.833 105.983 186.153 106.333C186.483 106.683 186.963 106.858 187.593 106.858C188.223 106.858 188.698 106.683 189.018 106.333C189.348 105.983 189.563 105.523 189.663 104.953C189.763 104.383 189.813 103.678 189.813 102.838ZM193.302 102.838C193.302 101.108 193.592 99.7583 194.172 98.7883C194.762 97.8083 195.772 97.3183 197.202 97.3183C198.632 97.3183 199.637 97.8083 200.217 98.7883C200.807 99.7583 201.102 101.108 201.102 102.838C201.102 104.588 200.807 105.958 200.217 106.948C199.637 107.928 198.632 108.418 197.202 108.418C195.772 108.418 194.762 107.928 194.172 106.948C193.592 105.958 193.302 104.588 193.302 102.838ZM199.422 102.838C199.422 102.028 199.367 101.343 199.257 100.783C199.157 100.223 198.947 99.7683 198.627 99.4183C198.307 99.0583 197.832 98.8783 197.202 98.8783C196.572 98.8783 196.097 99.0583 195.777 99.4183C195.457 99.7683 195.242 100.223 195.132 100.783C195.032 101.343 194.982 102.028 194.982 102.838C194.982 103.678 195.032 104.383 195.132 104.953C195.232 105.523 195.442 105.983 195.762 106.333C196.092 106.683 196.572 106.858 197.202 106.858C197.832 106.858 198.307 106.683 198.627 106.333C198.957 105.983 199.172 105.523 199.272 104.953C199.372 104.383 199.422 103.678 199.422 102.838ZM213.142 100.048C213.792 100.048 214.372 100.183 214.882 100.453C215.402 100.723 215.807 101.123 216.097 101.653C216.397 102.183 216.547 102.823 216.547 103.573V108.448H214.852V103.828C214.852 103.088 214.667 102.523 214.297 102.133C213.927 101.733 213.422 101.533 212.782 101.533C212.142 101.533 211.632 101.733 211.252 102.133C210.882 102.523 210.697 103.088 210.697 103.828V108.448H209.002V103.828C209.002 103.088 208.817 102.523 208.447 102.133C208.077 101.733 207.572 101.533 206.932 101.533C206.292 101.533 205.782 101.733 205.402 102.133C205.032 102.523 204.847 103.088 204.847 103.828V108.448H203.137V100.183H204.847V101.128C205.127 100.788 205.482 100.523 205.912 100.333C206.342 100.143 206.802 100.048 207.292 100.048C207.952 100.048 208.542 100.188 209.062 100.468C209.582 100.748 209.982 101.153 210.262 101.683C210.512 101.183 210.902 100.788 211.432 100.498C211.962 100.198 212.532 100.048 213.142 100.048ZM224.614 101.578V106.153C224.614 106.463 224.684 106.688 224.824 106.828C224.974 106.958 225.224 107.023 225.574 107.023H226.624V108.448H225.274C224.504 108.448 223.914 108.268 223.504 107.908C223.094 107.548 222.889 106.963 222.889 106.153V101.578H221.914V100.183H222.889V98.1283H224.614V100.183H226.624V101.578H224.614ZM227.63 104.278C227.63 103.448 227.8 102.713 228.14 102.073C228.49 101.433 228.96 100.938 229.55 100.588C230.15 100.228 230.81 100.048 231.53 100.048C232.18 100.048 232.745 100.178 233.225 100.438C233.715 100.688 234.105 101.003 234.395 101.383V100.183H236.12V108.448H234.395V107.218C234.105 107.608 233.71 107.933 233.21 108.193C232.71 108.453 232.14 108.583 231.5 108.583C230.79 108.583 230.14 108.403 229.55 108.043C228.96 107.673 228.49 107.163 228.14 106.513C227.8 105.853 227.63 105.108 227.63 104.278ZM234.395 104.308C234.395 103.738 234.275 103.243 234.035 102.823C233.805 102.403 233.5 102.083 233.12 101.863C232.74 101.643 232.33 101.533 231.89 101.533C231.45 101.533 231.04 101.643 230.66 101.863C230.28 102.073 229.97 102.388 229.73 102.808C229.5 103.218 229.385 103.708 229.385 104.278C229.385 104.848 229.5 105.348 229.73 105.778C229.97 106.208 230.28 106.538 230.66 106.768C231.05 106.988 231.46 107.098 231.89 107.098C232.33 107.098 232.74 106.988 233.12 106.768C233.5 106.548 233.805 106.228 234.035 105.808C234.275 105.378 234.395 104.878 234.395 104.308ZM241.636 104.323L245.446 108.448H243.136L240.076 104.893V108.448H238.366V97.3483H240.076V103.798L243.076 100.183H245.446L241.636 104.323ZM254.247 104.113C254.247 104.423 254.227 104.703 254.187 104.953H247.872C247.922 105.613 248.167 106.143 248.607 106.543C249.047 106.943 249.587 107.143 250.227 107.143C251.147 107.143 251.797 106.758 252.177 105.988H254.022C253.772 106.748 253.317 107.373 252.657 107.863C252.007 108.343 251.197 108.583 250.227 108.583C249.437 108.583 248.727 108.408 248.097 108.058C247.477 107.698 246.987 107.198 246.627 106.558C246.277 105.908 246.102 105.158 246.102 104.308C246.102 103.458 246.272 102.713 246.612 102.073C246.962 101.423 247.447 100.923 248.067 100.573C248.697 100.223 249.417 100.048 250.227 100.048C251.007 100.048 251.702 100.218 252.312 100.558C252.922 100.898 253.397 101.378 253.737 101.998C254.077 102.608 254.247 103.313 254.247 104.113ZM252.462 103.573C252.452 102.943 252.227 102.438 251.787 102.058C251.347 101.678 250.802 101.488 250.152 101.488C249.562 101.488 249.057 101.678 248.637 102.058C248.217 102.428 247.967 102.933 247.887 103.573H252.462ZM261.821 101.578V106.153C261.821 106.463 261.891 106.688 262.031 106.828C262.181 106.958 262.431 107.023 262.781 107.023H263.831V108.448H262.481C261.711 108.448 261.121 108.268 260.711 107.908C260.301 107.548 260.096 106.963 260.096 106.153V101.578H259.121V100.183H260.096V98.1283H261.821V100.183H263.831V101.578H261.821ZM272.892 100.183V108.448H271.182V107.473C270.912 107.813 270.557 108.083 270.117 108.283C269.687 108.473 269.227 108.568 268.737 108.568C268.087 108.568 267.502 108.433 266.982 108.163C266.472 107.893 266.067 107.493 265.767 106.963C265.477 106.433 265.332 105.793 265.332 105.043V100.183H267.027V104.788C267.027 105.528 267.212 106.098 267.582 106.498C267.952 106.888 268.457 107.083 269.097 107.083C269.737 107.083 270.242 106.888 270.612 106.498C270.992 106.098 271.182 105.528 271.182 104.788V100.183H272.892ZM276.858 101.383C277.108 100.963 277.438 100.638 277.848 100.408C278.268 100.168 278.763 100.048 279.333 100.048V101.818H278.898C278.228 101.818 277.718 101.988 277.368 102.328C277.028 102.668 276.858 103.258 276.858 104.098V108.448H275.148V100.183H276.858V101.383ZM285.075 100.048C285.725 100.048 286.305 100.183 286.815 100.453C287.335 100.723 287.74 101.123 288.03 101.653C288.32 102.183 288.465 102.823 288.465 103.573V108.448H286.77V103.828C286.77 103.088 286.585 102.523 286.215 102.133C285.845 101.733 285.34 101.533 284.7 101.533C284.06 101.533 283.55 101.733 283.17 102.133C282.8 102.523 282.615 103.088 282.615 103.828V108.448H280.905V100.183H282.615V101.128C282.895 100.788 283.25 100.523 283.68 100.333C284.12 100.143 284.585 100.048 285.075 100.048ZM291.516 99.0883C291.206 99.0883 290.946 98.9833 290.736 98.7733C290.526 98.5633 290.421 98.3033 290.421 97.9933C290.421 97.6833 290.526 97.4233 290.736 97.2133C290.946 97.0033 291.206 96.8983 291.516 96.8983C291.816 96.8983 292.071 97.0033 292.281 97.2133C292.491 97.4233 292.596 97.6833 292.596 97.9933C292.596 98.3033 292.491 98.5633 292.281 98.7733C292.071 98.9833 291.816 99.0883 291.516 99.0883ZM292.356 100.183V108.448H290.646V100.183H292.356ZM298.772 100.048C299.422 100.048 300.002 100.183 300.512 100.453C301.032 100.723 301.437 101.123 301.727 101.653C302.017 102.183 302.162 102.823 302.162 103.573V108.448H300.467V103.828C300.467 103.088 300.282 102.523 299.912 102.133C299.542 101.733 299.037 101.533 298.397 101.533C297.757 101.533 297.247 101.733 296.867 102.133C296.497 102.523 296.312 103.088 296.312 103.828V108.448H294.602V100.183H296.312V101.128C296.592 100.788 296.947 100.523 297.377 100.333C297.817 100.143 298.282 100.048 298.772 100.048ZM307.673 100.048C308.313 100.048 308.878 100.178 309.368 100.438C309.868 100.688 310.258 101.003 310.538 101.383V100.183H312.263V108.583C312.263 109.343 312.103 110.018 311.783 110.608C311.463 111.208 310.998 111.678 310.388 112.018C309.788 112.358 309.068 112.528 308.228 112.528C307.108 112.528 306.178 112.263 305.438 111.733C304.698 111.213 304.278 110.503 304.178 109.603H305.873C306.003 110.033 306.278 110.378 306.698 110.638C307.128 110.908 307.638 111.043 308.228 111.043C308.918 111.043 309.473 110.833 309.893 110.413C310.323 109.993 310.538 109.383 310.538 108.583V107.203C310.248 107.593 309.853 107.923 309.353 108.193C308.863 108.453 308.303 108.583 307.673 108.583C306.953 108.583 306.293 108.403 305.693 108.043C305.103 107.673 304.633 107.163 304.283 106.513C303.943 105.853 303.773 105.108 303.773 104.278C303.773 103.448 303.943 102.713 304.283 102.073C304.633 101.433 305.103 100.938 305.693 100.588C306.293 100.228 306.953 100.048 307.673 100.048ZM310.538 104.308C310.538 103.738 310.418 103.243 310.178 102.823C309.948 102.403 309.643 102.083 309.263 101.863C308.883 101.643 308.473 101.533 308.033 101.533C307.593 101.533 307.183 101.643 306.803 101.863C306.423 102.073 306.113 102.388 305.873 102.808C305.643 103.218 305.528 103.708 305.528 104.278C305.528 104.848 305.643 105.348 305.873 105.778C306.113 106.208 306.423 106.538 306.803 106.768C307.193 106.988 307.603 107.098 308.033 107.098C308.473 107.098 308.883 106.988 309.263 106.768C309.643 106.548 309.948 106.228 310.178 105.808C310.418 105.378 310.538 104.878 310.538 104.308ZM320.115 101.383C320.365 100.963 320.695 100.638 321.105 100.408C321.525 100.168 322.02 100.048 322.59 100.048V101.818H322.155C321.485 101.818 320.975 101.988 320.625 102.328C320.285 102.668 320.115 103.258 320.115 104.098V108.448H318.405V100.183H320.115V101.383ZM325.032 99.0883C324.722 99.0883 324.462 98.9833 324.252 98.7733C324.042 98.5633 323.937 98.3033 323.937 97.9933C323.937 97.6833 324.042 97.4233 324.252 97.2133C324.462 97.0033 324.722 96.8983 325.032 96.8983C325.332 96.8983 325.587 97.0033 325.797 97.2133C326.007 97.4233 326.112 97.6833 326.112 97.9933C326.112 98.3033 326.007 98.5633 325.797 98.7733C325.587 98.9833 325.332 99.0883 325.032 99.0883ZM325.872 100.183V108.448H324.162V100.183H325.872ZM331.447 100.048C332.087 100.048 332.652 100.178 333.142 100.438C333.642 100.688 334.032 101.003 334.312 101.383V100.183H336.037V108.583C336.037 109.343 335.877 110.018 335.557 110.608C335.237 111.208 334.772 111.678 334.162 112.018C333.562 112.358 332.842 112.528 332.002 112.528C330.882 112.528 329.952 112.263 329.212 111.733C328.472 111.213 328.052 110.503 327.952 109.603H329.647C329.777 110.033 330.052 110.378 330.472 110.638C330.902 110.908 331.412 111.043 332.002 111.043C332.692 111.043 333.247 110.833 333.667 110.413C334.097 109.993 334.312 109.383 334.312 108.583V107.203C334.022 107.593 333.627 107.923 333.127 108.193C332.637 108.453 332.077 108.583 331.447 108.583C330.727 108.583 330.067 108.403 329.467 108.043C328.877 107.673 328.407 107.163 328.057 106.513C327.717 105.853 327.547 105.108 327.547 104.278C327.547 103.448 327.717 102.713 328.057 102.073C328.407 101.433 328.877 100.938 329.467 100.588C330.067 100.228 330.727 100.048 331.447 100.048ZM334.312 104.308C334.312 103.738 334.192 103.243 333.952 102.823C333.722 102.403 333.417 102.083 333.037 101.863C332.657 101.643 332.247 101.533 331.807 101.533C331.367 101.533 330.957 101.643 330.577 101.863C330.197 102.073 329.887 102.388 329.647 102.808C329.417 103.218 329.302 103.708 329.302 104.278C329.302 104.848 329.417 105.348 329.647 105.778C329.887 106.208 330.197 106.538 330.577 106.768C330.967 106.988 331.377 107.098 331.807 107.098C332.247 107.098 332.657 106.988 333.037 106.768C333.417 106.548 333.722 106.228 333.952 105.808C334.192 105.378 334.312 104.878 334.312 104.308ZM342.558 100.048C343.188 100.048 343.748 100.183 344.238 100.453C344.738 100.723 345.128 101.123 345.408 101.653C345.698 102.183 345.843 102.823 345.843 103.573V108.448H344.148V103.828C344.148 103.088 343.963 102.523 343.593 102.133C343.223 101.733 342.718 101.533 342.078 101.533C341.438 101.533 340.928 101.733 340.548 102.133C340.178 102.523 339.993 103.088 339.993 103.828V108.448H338.283V97.3483H339.993V101.143C340.283 100.793 340.648 100.523 341.088 100.333C341.538 100.143 342.028 100.048 342.558 100.048ZM350.019 101.578V106.153C350.019 106.463 350.089 106.688 350.229 106.828C350.379 106.958 350.629 107.023 350.979 107.023H352.029V108.448H350.679C349.909 108.448 349.319 108.268 348.909 107.908C348.499 107.548 348.294 106.963 348.294 106.153V101.578H347.319V100.183H348.294V98.1283H350.019V100.183H352.029V101.578H350.019Z" fill="#87888C"/>
<path d="M318.799 253.429C318.239 253.429 317.735 253.333 317.287 253.141C316.839 252.941 316.487 252.661 316.231 252.301C315.975 251.941 315.847 251.521 315.847 251.041H317.311C317.343 251.401 317.483 251.697 317.731 251.929C317.987 252.161 318.343 252.277 318.799 252.277C319.271 252.277 319.639 252.165 319.903 251.941C320.167 251.709 320.299 251.413 320.299 251.053C320.299 250.773 320.215 250.545 320.047 250.369C319.887 250.193 319.683 250.057 319.435 249.961C319.195 249.865 318.859 249.761 318.427 249.649C317.883 249.505 317.439 249.361 317.095 249.217C316.759 249.065 316.471 248.833 316.231 248.521C315.991 248.209 315.871 247.793 315.871 247.273C315.871 246.793 315.991 246.373 316.231 246.013C316.471 245.653 316.807 245.377 317.239 245.185C317.671 244.993 318.171 244.897 318.739 244.897C319.547 244.897 320.207 245.101 320.719 245.509C321.239 245.909 321.527 246.461 321.583 247.165H320.071C320.047 246.861 319.903 246.601 319.639 246.385C319.375 246.169 319.027 246.061 318.595 246.061C318.203 246.061 317.883 246.161 317.635 246.361C317.387 246.561 317.263 246.849 317.263 247.225C317.263 247.481 317.339 247.693 317.491 247.861C317.651 248.021 317.851 248.149 318.091 248.245C318.331 248.341 318.659 248.445 319.075 248.557C319.627 248.709 320.075 248.861 320.419 249.013C320.771 249.165 321.067 249.401 321.307 249.721C321.555 250.033 321.679 250.453 321.679 250.981C321.679 251.405 321.563 251.805 321.331 252.181C321.107 252.557 320.775 252.861 320.335 253.093C319.903 253.317 319.391 253.429 318.799 253.429ZM324.889 247.849V251.509C324.889 251.757 324.945 251.937 325.057 252.049C325.177 252.153 325.377 252.205 325.657 252.205H326.497V253.345H325.417C324.801 253.345 324.329 253.201 324.001 252.913C323.673 252.625 323.509 252.157 323.509 251.509V247.849H322.729V246.733H323.509V245.089H324.889V246.733H326.497V247.849H324.889ZM335.423 245.005V251.017C335.423 251.761 335.195 252.349 334.739 252.781C334.291 253.213 333.699 253.429 332.963 253.429C332.227 253.429 331.631 253.213 331.175 252.781C330.727 252.349 330.503 251.761 330.503 251.017H331.883C331.891 251.385 331.983 251.677 332.159 251.893C332.343 252.109 332.611 252.217 332.963 252.217C333.315 252.217 333.583 252.109 333.767 251.893C333.951 251.669 334.043 251.377 334.043 251.017V245.005H335.423ZM340.517 253.453C339.893 253.453 339.329 253.313 338.825 253.033C338.321 252.745 337.925 252.345 337.637 251.833C337.349 251.313 337.205 250.713 337.205 250.033C337.205 249.361 337.353 248.765 337.649 248.245C337.945 247.725 338.349 247.325 338.861 247.045C339.373 246.765 339.945 246.625 340.577 246.625C341.209 246.625 341.781 246.765 342.293 247.045C342.805 247.325 343.209 247.725 343.505 248.245C343.801 248.765 343.949 249.361 343.949 250.033C343.949 250.705 343.797 251.301 343.493 251.821C343.189 252.341 342.773 252.745 342.245 253.033C341.725 253.313 341.149 253.453 340.517 253.453ZM340.517 252.265C340.869 252.265 341.197 252.181 341.501 252.013C341.813 251.845 342.065 251.593 342.257 251.257C342.449 250.921 342.545 250.513 342.545 250.033C342.545 249.553 342.453 249.149 342.269 248.821C342.085 248.485 341.841 248.233 341.537 248.065C341.233 247.897 340.905 247.813 340.553 247.813C340.201 247.813 339.873 247.897 339.569 248.065C339.273 248.233 339.037 248.485 338.861 248.821C338.685 249.149 338.597 249.553 338.597 250.033C338.597 250.745 338.777 251.297 339.137 251.689C339.505 252.073 339.965 252.265 340.517 252.265ZM347.701 253.453C347.181 253.453 346.713 253.361 346.297 253.177C345.889 252.985 345.565 252.729 345.325 252.409C345.085 252.081 344.957 251.717 344.941 251.317H346.357C346.381 251.597 346.513 251.833 346.753 252.025C347.001 252.209 347.309 252.301 347.677 252.301C348.061 252.301 348.357 252.229 348.565 252.085C348.781 251.933 348.889 251.741 348.889 251.509C348.889 251.261 348.769 251.077 348.529 250.957C348.297 250.837 347.925 250.705 347.413 250.561C346.917 250.425 346.513 250.293 346.201 250.165C345.889 250.037 345.617 249.841 345.385 249.577C345.161 249.313 345.049 248.965 345.049 248.533C345.049 248.181 345.153 247.861 345.361 247.573C345.569 247.277 345.865 247.045 346.249 246.877C346.641 246.709 347.089 246.625 347.593 246.625C348.345 246.625 348.949 246.817 349.405 247.201C349.869 247.577 350.117 248.093 350.149 248.749H348.781C348.757 248.453 348.637 248.217 348.421 248.041C348.205 247.865 347.913 247.777 347.545 247.777C347.185 247.777 346.909 247.845 346.717 247.981C346.525 248.117 346.429 248.297 346.429 248.521C346.429 248.697 346.493 248.845 346.621 248.965C346.749 249.085 346.905 249.181 347.089 249.253C347.273 249.317 347.545 249.401 347.905 249.505C348.385 249.633 348.777 249.765 349.081 249.901C349.393 250.029 349.661 250.221 349.885 250.477C350.109 250.733 350.225 251.073 350.233 251.497C350.233 251.873 350.129 252.209 349.921 252.505C349.713 252.801 349.417 253.033 349.033 253.201C348.657 253.369 348.213 253.453 347.701 253.453ZM357.771 249.877C357.771 250.125 357.755 250.349 357.723 250.549H352.671C352.711 251.077 352.907 251.501 353.259 251.821C353.611 252.141 354.043 252.301 354.555 252.301C355.291 252.301 355.811 251.993 356.115 251.377H357.591C357.391 251.985 357.027 252.485 356.499 252.877C355.979 253.261 355.331 253.453 354.555 253.453C353.923 253.453 353.355 253.313 352.851 253.033C352.355 252.745 351.963 252.345 351.675 251.833C351.395 251.313 351.255 250.713 351.255 250.033C351.255 249.353 351.391 248.757 351.663 248.245C351.943 247.725 352.331 247.325 352.827 247.045C353.331 246.765 353.907 246.625 354.555 246.625C355.179 246.625 355.735 246.761 356.223 247.033C356.711 247.305 357.091 247.689 357.363 248.185C357.635 248.673 357.771 249.237 357.771 249.877ZM356.343 249.445C356.335 248.941 356.155 248.537 355.803 248.233C355.451 247.929 355.015 247.777 354.495 247.777C354.023 247.777 353.619 247.929 353.283 248.233C352.947 248.529 352.747 248.933 352.683 249.445H356.343ZM360.485 247.705C360.717 247.401 361.033 247.145 361.433 246.937C361.833 246.729 362.285 246.625 362.789 246.625C363.365 246.625 363.889 246.769 364.361 247.057C364.841 247.337 365.217 247.733 365.489 248.245C365.761 248.757 365.897 249.345 365.897 250.009C365.897 250.673 365.761 251.269 365.489 251.797C365.217 252.317 364.841 252.725 364.361 253.021C363.889 253.309 363.365 253.453 362.789 253.453C362.285 253.453 361.837 253.353 361.445 253.153C361.053 252.945 360.733 252.689 360.485 252.385V256.489H359.117V246.733H360.485V247.705ZM364.505 250.009C364.505 249.553 364.409 249.161 364.217 248.833C364.033 248.497 363.785 248.245 363.473 248.077C363.169 247.901 362.841 247.813 362.489 247.813C362.145 247.813 361.817 247.901 361.505 248.077C361.201 248.253 360.953 248.509 360.761 248.845C360.577 249.181 360.485 249.577 360.485 250.033C360.485 250.489 360.577 250.889 360.761 251.233C360.953 251.569 361.201 251.825 361.505 252.001C361.817 252.177 362.145 252.265 362.489 252.265C362.841 252.265 363.169 252.177 363.473 252.001C363.785 251.817 364.033 251.553 364.217 251.209C364.409 250.865 364.505 250.465 364.505 250.009ZM370.67 246.625C371.174 246.625 371.622 246.733 372.014 246.949C372.414 247.165 372.726 247.485 372.95 247.909C373.182 248.333 373.298 248.845 373.298 249.445V253.345H371.942V249.649C371.942 249.057 371.794 248.605 371.498 248.293C371.202 247.973 370.798 247.813 370.286 247.813C369.774 247.813 369.366 247.973 369.062 248.293C368.766 248.605 368.618 249.057 368.618 249.649V253.345H367.25V244.465H368.618V247.501C368.85 247.221 369.142 247.005 369.494 246.853C369.854 246.701 370.246 246.625 370.67 246.625ZM382.756 253.345L379.528 249.613V253.345H378.16V245.005H379.528V248.809L382.768 245.005H384.484L380.86 249.181L384.544 253.345H382.756ZM389.174 246.625C389.678 246.625 390.126 246.733 390.518 246.949C390.918 247.165 391.23 247.485 391.454 247.909C391.686 248.333 391.802 248.845 391.802 249.445V253.345H390.446V249.649C390.446 249.057 390.298 248.605 390.002 248.293C389.706 247.973 389.302 247.813 388.79 247.813C388.278 247.813 387.87 247.973 387.566 248.293C387.27 248.605 387.122 249.057 387.122 249.649V253.345H385.754V244.465H387.122V247.501C387.354 247.221 387.646 247.005 387.998 246.853C388.358 246.701 388.75 246.625 389.174 246.625ZM396.415 253.453C395.791 253.453 395.227 253.313 394.723 253.033C394.219 252.745 393.823 252.345 393.535 251.833C393.247 251.313 393.103 250.713 393.103 250.033C393.103 249.361 393.251 248.765 393.547 248.245C393.843 247.725 394.247 247.325 394.759 247.045C395.271 246.765 395.843 246.625 396.475 246.625C397.107 246.625 397.679 246.765 398.191 247.045C398.703 247.325 399.107 247.725 399.403 248.245C399.699 248.765 399.847 249.361 399.847 250.033C399.847 250.705 399.695 251.301 399.391 251.821C399.087 252.341 398.671 252.745 398.143 253.033C397.623 253.313 397.047 253.453 396.415 253.453ZM396.415 252.265C396.767 252.265 397.095 252.181 397.399 252.013C397.711 251.845 397.963 251.593 398.155 251.257C398.347 250.921 398.443 250.513 398.443 250.033C398.443 249.553 398.351 249.149 398.167 248.821C397.983 248.485 397.739 248.233 397.435 248.065C397.131 247.897 396.803 247.813 396.451 247.813C396.099 247.813 395.771 247.897 395.467 248.065C395.171 248.233 394.935 248.485 394.759 248.821C394.583 249.149 394.495 249.553 394.495 250.033C394.495 250.745 394.675 251.297 395.035 251.689C395.403 252.073 395.863 252.265 396.415 252.265ZM402.567 247.693C402.767 247.357 403.031 247.097 403.359 246.913C403.695 246.721 404.091 246.625 404.547 246.625V248.041H404.199C403.663 248.041 403.255 248.177 402.975 248.449C402.703 248.721 402.567 249.193 402.567 249.865V253.345H401.199V246.733H402.567V247.693ZM405.349 250.009C405.349 249.345 405.485 248.757 405.757 248.245C406.037 247.733 406.413 247.337 406.885 247.057C407.365 246.769 407.893 246.625 408.469 246.625C408.989 246.625 409.441 246.729 409.825 246.937C410.217 247.137 410.529 247.389 410.761 247.693V246.733H412.141V253.345H410.761V252.361C410.529 252.673 410.213 252.933 409.813 253.141C409.413 253.349 408.957 253.453 408.445 253.453C407.877 253.453 407.357 253.309 406.885 253.021C406.413 252.725 406.037 252.317 405.757 251.797C405.485 251.269 405.349 250.673 405.349 250.009ZM410.761 250.033C410.761 249.577 410.665 249.181 410.473 248.845C410.289 248.509 410.045 248.253 409.741 248.077C409.437 247.901 409.109 247.813 408.757 247.813C408.405 247.813 408.077 247.901 407.773 248.077C407.469 248.245 407.221 248.497 407.029 248.833C406.845 249.161 406.753 249.553 406.753 250.009C406.753 250.465 406.845 250.865 407.029 251.209C407.221 251.553 407.469 251.817 407.773 252.001C408.085 252.177 408.413 252.265 408.757 252.265C409.109 252.265 409.437 252.177 409.741 252.001C410.045 251.825 410.289 251.569 410.473 251.233C410.665 250.889 410.761 250.489 410.761 250.033ZM415.306 247.717C415.538 247.397 415.854 247.137 416.254 246.937C416.662 246.729 417.114 246.625 417.61 246.625C418.194 246.625 418.722 246.765 419.194 247.045C419.666 247.325 420.038 247.725 420.31 248.245C420.582 248.757 420.718 249.345 420.718 250.009C420.718 250.673 420.582 251.269 420.31 251.797C420.038 252.317 419.662 252.725 419.182 253.021C418.71 253.309 418.186 253.453 417.61 253.453C417.098 253.453 416.642 253.353 416.242 253.153C415.85 252.953 415.538 252.697 415.306 252.385V253.345H413.938V244.465H415.306V247.717ZM419.326 250.009C419.326 249.553 419.23 249.161 419.038 248.833C418.854 248.497 418.606 248.245 418.294 248.077C417.99 247.901 417.662 247.813 417.31 247.813C416.966 247.813 416.638 247.901 416.326 248.077C416.022 248.253 415.774 248.509 415.582 248.845C415.398 249.181 415.306 249.577 415.306 250.033C415.306 250.489 415.398 250.889 415.582 251.233C415.774 251.569 416.022 251.825 416.326 252.001C416.638 252.177 416.966 252.265 417.31 252.265C417.662 252.265 417.99 252.177 418.294 252.001C418.606 251.817 418.854 251.553 419.038 251.209C419.23 250.865 419.326 250.465 419.326 250.009ZM421.614 250.009C421.614 249.345 421.75 248.757 422.022 248.245C422.302 247.733 422.678 247.337 423.15 247.057C423.63 246.769 424.158 246.625 424.734 246.625C425.254 246.625 425.706 246.729 426.09 246.937C426.482 247.137 426.794 247.389 427.026 247.693V246.733H428.406V253.345H427.026V252.361C426.794 252.673 426.478 252.933 426.078 253.141C425.678 253.349 425.222 253.453 424.71 253.453C424.142 253.453 423.622 253.309 423.15 253.021C422.678 252.725 422.302 252.317 422.022 251.797C421.75 251.269 421.614 250.673 421.614 250.009ZM427.026 250.033C427.026 249.577 426.93 249.181 426.738 248.845C426.554 248.509 426.31 248.253 426.006 248.077C425.702 247.901 425.374 247.813 425.022 247.813C424.67 247.813 424.342 247.901 424.038 248.077C423.734 248.245 423.486 248.497 423.294 248.833C423.11 249.161 423.018 249.553 423.018 250.009C423.018 250.465 423.11 250.865 423.294 251.209C423.486 251.553 423.734 251.817 424.038 252.001C424.35 252.177 424.678 252.265 425.022 252.265C425.374 252.265 425.702 252.177 426.006 252.001C426.31 251.825 426.554 251.569 426.738 251.233C426.93 250.889 427.026 250.489 427.026 250.033ZM431.571 247.693C431.771 247.357 432.035 247.097 432.363 246.913C432.699 246.721 433.095 246.625 433.551 246.625V248.041H433.203C432.667 248.041 432.259 248.177 431.979 248.449C431.707 248.721 431.571 249.193 431.571 249.865V253.345H430.203V246.733H431.571V247.693Z" fill="#87888C"/>
<path d="M96.7454 193.419V201.759H95.3774V196.047L92.8334 201.759H91.8854L89.3294 196.047V201.759H87.9614V193.419H89.4374L92.3654 199.959L95.2814 193.419H96.7454ZM104.579 195.819C104.363 195.403 104.063 195.091 103.679 194.883C103.295 194.667 102.851 194.559 102.347 194.559C101.795 194.559 101.303 194.683 100.871 194.931C100.439 195.179 100.099 195.531 99.8514 195.987C99.6114 196.443 99.4914 196.971 99.4914 197.571C99.4914 198.171 99.6114 198.703 99.8514 199.167C100.099 199.623 100.439 199.975 100.871 200.223C101.303 200.471 101.795 200.595 102.347 200.595C103.091 200.595 103.695 200.387 104.159 199.971C104.623 199.555 104.907 198.991 105.011 198.279H101.879V197.187H106.475V198.255C106.387 198.903 106.155 199.499 105.779 200.043C105.411 200.587 104.927 201.023 104.327 201.351C103.735 201.671 103.075 201.831 102.347 201.831C101.563 201.831 100.847 201.651 100.199 201.291C99.5514 200.923 99.0354 200.415 98.6514 199.767C98.2754 199.119 98.0874 198.387 98.0874 197.571C98.0874 196.755 98.2754 196.023 98.6514 195.375C99.0354 194.727 99.5514 194.223 100.199 193.863C100.855 193.495 101.571 193.311 102.347 193.311C103.235 193.311 104.023 193.531 104.711 193.971C105.407 194.403 105.911 195.019 106.223 195.819H104.579ZM115.274 201.759L113.354 198.423H112.31V201.759H110.942V193.419H113.822C114.462 193.419 115.002 193.531 115.442 193.755C115.89 193.979 116.222 194.279 116.438 194.655C116.662 195.031 116.774 195.451 116.774 195.915C116.774 196.459 116.614 196.955 116.294 197.403C115.982 197.843 115.498 198.143 114.842 198.303L116.906 201.759H115.274ZM112.31 197.331H113.822C114.334 197.331 114.718 197.203 114.974 196.947C115.238 196.691 115.37 196.347 115.37 195.915C115.37 195.483 115.242 195.147 114.986 194.907C114.73 194.659 114.342 194.535 113.822 194.535H112.31V197.331ZM121.392 201.867C120.768 201.867 120.204 201.727 119.7 201.447C119.196 201.159 118.8 200.759 118.512 200.247C118.224 199.727 118.08 199.127 118.08 198.447C118.08 197.775 118.228 197.179 118.524 196.659C118.82 196.139 119.224 195.739 119.736 195.459C120.248 195.179 120.82 195.039 121.452 195.039C122.084 195.039 122.656 195.179 123.168 195.459C123.68 195.739 124.084 196.139 124.38 196.659C124.676 197.179 124.824 197.775 124.824 198.447C124.824 199.119 124.672 199.715 124.368 200.235C124.064 200.755 123.648 201.159 123.12 201.447C122.6 201.727 122.024 201.867 121.392 201.867ZM121.392 200.679C121.744 200.679 122.072 200.595 122.376 200.427C122.688 200.259 122.94 200.007 123.132 199.671C123.324 199.335 123.42 198.927 123.42 198.447C123.42 197.967 123.328 197.563 123.144 197.235C122.96 196.899 122.716 196.647 122.412 196.479C122.108 196.311 121.78 196.227 121.428 196.227C121.076 196.227 120.748 196.311 120.444 196.479C120.148 196.647 119.912 196.899 119.736 197.235C119.56 197.563 119.472 197.967 119.472 198.447C119.472 199.159 119.652 199.711 120.012 200.103C120.38 200.487 120.84 200.679 121.392 200.679ZM125.72 198.423C125.72 197.759 125.856 197.171 126.128 196.659C126.408 196.147 126.784 195.751 127.256 195.471C127.736 195.183 128.264 195.039 128.84 195.039C129.36 195.039 129.812 195.143 130.196 195.351C130.588 195.551 130.9 195.803 131.132 196.107V195.147H132.512V201.759H131.132V200.775C130.9 201.087 130.584 201.347 130.184 201.555C129.784 201.763 129.328 201.867 128.816 201.867C128.248 201.867 127.728 201.723 127.256 201.435C126.784 201.139 126.408 200.731 126.128 200.211C125.856 199.683 125.72 199.087 125.72 198.423ZM131.132 198.447C131.132 197.991 131.036 197.595 130.844 197.259C130.66 196.923 130.416 196.667 130.112 196.491C129.808 196.315 129.48 196.227 129.128 196.227C128.776 196.227 128.448 196.315 128.144 196.491C127.84 196.659 127.592 196.911 127.4 197.247C127.216 197.575 127.124 197.967 127.124 198.423C127.124 198.879 127.216 199.279 127.4 199.623C127.592 199.967 127.84 200.231 128.144 200.415C128.456 200.591 128.784 200.679 129.128 200.679C129.48 200.679 129.808 200.591 130.112 200.415C130.416 200.239 130.66 199.983 130.844 199.647C131.036 199.303 131.132 198.903 131.132 198.447ZM133.853 198.423C133.853 197.759 133.989 197.171 134.261 196.659C134.541 196.147 134.917 195.751 135.389 195.471C135.869 195.183 136.401 195.039 136.985 195.039C137.417 195.039 137.841 195.135 138.257 195.327C138.681 195.511 139.017 195.759 139.265 196.071V192.879H140.645V201.759H139.265V200.763C139.041 201.083 138.729 201.347 138.329 201.555C137.937 201.763 137.485 201.867 136.973 201.867C136.397 201.867 135.869 201.723 135.389 201.435C134.917 201.139 134.541 200.731 134.261 200.211C133.989 199.683 133.853 199.087 133.853 198.423ZM139.265 198.447C139.265 197.991 139.169 197.595 138.977 197.259C138.793 196.923 138.549 196.667 138.245 196.491C137.941 196.315 137.613 196.227 137.261 196.227C136.909 196.227 136.581 196.315 136.277 196.491C135.973 196.659 135.725 196.911 135.533 197.247C135.349 197.575 135.257 197.967 135.257 198.423C135.257 198.879 135.349 199.279 135.533 199.623C135.725 199.967 135.973 200.231 136.277 200.415C136.589 200.591 136.917 200.679 137.261 200.679C137.613 200.679 137.941 200.591 138.245 200.415C138.549 200.239 138.793 199.983 138.977 199.647C139.169 199.303 139.265 198.903 139.265 198.447Z" fill="#87888C"/>
<path d="M301.598 430.246V438.586H300.23V430.246H301.598ZM306.73 431.866C307.25 431.866 307.714 431.974 308.122 432.19C308.538 432.406 308.862 432.726 309.094 433.15C309.326 433.574 309.442 434.086 309.442 434.686V438.586H308.086V434.89C308.086 434.298 307.938 433.846 307.642 433.534C307.346 433.214 306.942 433.054 306.43 433.054C305.918 433.054 305.51 433.214 305.206 433.534C304.91 433.846 304.762 434.298 304.762 434.89V438.586H303.394V431.974H304.762V432.73C304.986 432.458 305.27 432.246 305.614 432.094C305.966 431.942 306.338 431.866 306.73 431.866ZM313.959 433.09H312.735V438.586H311.355V433.09H310.575V431.974H311.355V431.506C311.355 430.746 311.555 430.194 311.955 429.85C312.363 429.498 312.999 429.322 313.863 429.322V430.462C313.447 430.462 313.155 430.542 312.987 430.702C312.819 430.854 312.735 431.122 312.735 431.506V431.974H313.959V433.09ZM314.715 435.25C314.715 434.586 314.851 433.998 315.123 433.486C315.403 432.974 315.779 432.578 316.251 432.298C316.731 432.01 317.259 431.866 317.835 431.866C318.355 431.866 318.807 431.97 319.191 432.178C319.583 432.378 319.895 432.63 320.127 432.934V431.974H321.507V438.586H320.127V437.602C319.895 437.914 319.579 438.174 319.179 438.382C318.779 438.59 318.323 438.694 317.811 438.694C317.243 438.694 316.723 438.55 316.251 438.262C315.779 437.966 315.403 437.558 315.123 437.038C314.851 436.51 314.715 435.914 314.715 435.25ZM320.127 435.274C320.127 434.818 320.031 434.422 319.839 434.086C319.655 433.75 319.411 433.494 319.107 433.318C318.803 433.142 318.475 433.054 318.123 433.054C317.771 433.054 317.443 433.142 317.139 433.318C316.835 433.486 316.587 433.738 316.395 434.074C316.211 434.402 316.119 434.794 316.119 435.25C316.119 435.706 316.211 436.106 316.395 436.45C316.587 436.794 316.835 437.058 317.139 437.242C317.451 437.418 317.779 437.506 318.123 437.506C318.475 437.506 318.803 437.418 319.107 437.242C319.411 437.066 319.655 436.81 319.839 436.474C320.031 436.13 320.127 435.73 320.127 435.274ZM326.64 431.866C327.16 431.866 327.624 431.974 328.032 432.19C328.448 432.406 328.772 432.726 329.004 433.15C329.236 433.574 329.352 434.086 329.352 434.686V438.586H327.996V434.89C327.996 434.298 327.848 433.846 327.552 433.534C327.256 433.214 326.852 433.054 326.34 433.054C325.828 433.054 325.42 433.214 325.116 433.534C324.82 433.846 324.672 434.298 324.672 434.89V438.586H323.304V431.974H324.672V432.73C324.896 432.458 325.18 432.246 325.524 432.094C325.876 431.942 326.248 431.866 326.64 431.866ZM332.693 433.09V436.75C332.693 436.998 332.749 437.178 332.861 437.29C332.981 437.394 333.181 437.446 333.461 437.446H334.301V438.586H333.221C332.605 438.586 332.133 438.442 331.805 438.154C331.477 437.866 331.313 437.398 331.313 436.75V433.09H330.533V431.974H331.313V430.33H332.693V431.974H334.301V433.09H332.693ZM343.227 430.246V436.258C343.227 437.002 342.999 437.59 342.543 438.022C342.095 438.454 341.503 438.67 340.767 438.67C340.031 438.67 339.435 438.454 338.979 438.022C338.531 437.59 338.307 437.002 338.307 436.258H339.687C339.695 436.626 339.787 436.918 339.963 437.134C340.147 437.35 340.415 437.458 340.767 437.458C341.119 437.458 341.387 437.35 341.571 437.134C341.755 436.91 341.847 436.618 341.847 436.258V430.246H343.227ZM351.512 435.118C351.512 435.366 351.496 435.59 351.464 435.79H346.412C346.452 436.318 346.648 436.742 347 437.062C347.352 437.382 347.784 437.542 348.296 437.542C349.032 437.542 349.552 437.234 349.856 436.618H351.332C351.132 437.226 350.768 437.726 350.24 438.118C349.72 438.502 349.072 438.694 348.296 438.694C347.664 438.694 347.096 438.554 346.592 438.274C346.096 437.986 345.704 437.586 345.416 437.074C345.136 436.554 344.996 435.954 344.996 435.274C344.996 434.594 345.132 433.998 345.404 433.486C345.684 432.966 346.072 432.566 346.568 432.286C347.072 432.006 347.648 431.866 348.296 431.866C348.92 431.866 349.476 432.002 349.964 432.274C350.452 432.546 350.832 432.93 351.104 433.426C351.376 433.914 351.512 434.478 351.512 435.118ZM350.084 434.686C350.076 434.182 349.896 433.778 349.544 433.474C349.192 433.17 348.756 433.018 348.236 433.018C347.764 433.018 347.36 433.17 347.024 433.474C346.688 433.77 346.488 434.174 346.424 434.686H350.084ZM355.258 438.694C354.738 438.694 354.27 438.602 353.854 438.418C353.446 438.226 353.122 437.97 352.882 437.65C352.642 437.322 352.514 436.958 352.498 436.558H353.914C353.938 436.838 354.07 437.074 354.31 437.266C354.558 437.45 354.866 437.542 355.234 437.542C355.618 437.542 355.914 437.47 356.122 437.326C356.338 437.174 356.446 436.982 356.446 436.75C356.446 436.502 356.326 436.318 356.086 436.198C355.854 436.078 355.482 435.946 354.97 435.802C354.474 435.666 354.07 435.534 353.758 435.406C353.446 435.278 353.174 435.082 352.942 434.818C352.718 434.554 352.606 434.206 352.606 433.774C352.606 433.422 352.71 433.102 352.918 432.814C353.126 432.518 353.422 432.286 353.806 432.118C354.198 431.95 354.646 431.866 355.15 431.866C355.902 431.866 356.506 432.058 356.962 432.442C357.426 432.818 357.674 433.334 357.706 433.99H356.338C356.314 433.694 356.194 433.458 355.978 433.282C355.762 433.106 355.47 433.018 355.102 433.018C354.742 433.018 354.466 433.086 354.274 433.222C354.082 433.358 353.986 433.538 353.986 433.762C353.986 433.938 354.05 434.086 354.178 434.206C354.306 434.326 354.462 434.422 354.646 434.494C354.83 434.558 355.102 434.642 355.462 434.746C355.942 434.874 356.334 435.006 356.638 435.142C356.95 435.27 357.218 435.462 357.442 435.718C357.666 435.974 357.782 436.314 357.79 436.738C357.79 437.114 357.686 437.45 357.478 437.746C357.27 438.042 356.974 438.274 356.59 438.442C356.214 438.61 355.77 438.694 355.258 438.694ZM365.257 431.974V438.586H363.889V437.806C363.673 438.078 363.389 438.294 363.037 438.454C362.693 438.606 362.325 438.682 361.933 438.682C361.413 438.682 360.945 438.574 360.529 438.358C360.121 438.142 359.797 437.822 359.557 437.398C359.325 436.974 359.209 436.462 359.209 435.862V431.974H360.565V435.658C360.565 436.25 360.713 436.706 361.009 437.026C361.305 437.338 361.709 437.494 362.221 437.494C362.733 437.494 363.137 437.338 363.433 437.026C363.737 436.706 363.889 436.25 363.889 435.658V431.974H365.257ZM369.462 438.694C368.942 438.694 368.474 438.602 368.058 438.418C367.65 438.226 367.326 437.97 367.086 437.65C366.846 437.322 366.718 436.958 366.702 436.558H368.118C368.142 436.838 368.274 437.074 368.514 437.266C368.762 437.45 369.07 437.542 369.438 437.542C369.822 437.542 370.118 437.47 370.326 437.326C370.542 437.174 370.65 436.982 370.65 436.75C370.65 436.502 370.53 436.318 370.29 436.198C370.058 436.078 369.686 435.946 369.174 435.802C368.678 435.666 368.274 435.534 367.962 435.406C367.65 435.278 367.378 435.082 367.146 434.818C366.922 434.554 366.81 434.206 366.81 433.774C366.81 433.422 366.914 433.102 367.122 432.814C367.33 432.518 367.626 432.286 368.01 432.118C368.402 431.95 368.85 431.866 369.354 431.866C370.106 431.866 370.71 432.058 371.166 432.442C371.63 432.818 371.878 433.334 371.91 433.99H370.542C370.518 433.694 370.398 433.458 370.182 433.282C369.966 433.106 369.674 433.018 369.306 433.018C368.946 433.018 368.67 433.086 368.478 433.222C368.286 433.358 368.19 433.538 368.19 433.762C368.19 433.938 368.254 434.086 368.382 434.206C368.51 434.326 368.666 434.422 368.85 434.494C369.034 434.558 369.306 434.642 369.666 434.746C370.146 434.874 370.538 435.006 370.842 435.142C371.154 435.27 371.422 435.462 371.646 435.718C371.87 435.974 371.986 436.314 371.994 436.738C371.994 437.114 371.89 437.45 371.682 437.746C371.474 438.042 371.178 438.274 370.794 438.442C370.418 438.61 369.974 438.694 369.462 438.694ZM376.133 434.398C376.133 433.582 376.321 432.85 376.697 432.202C377.081 431.554 377.597 431.05 378.245 430.69C378.901 430.322 379.617 430.138 380.393 430.138C381.281 430.138 382.069 430.358 382.757 430.798C383.453 431.23 383.957 431.846 384.269 432.646H382.625C382.409 432.206 382.109 431.878 381.725 431.662C381.341 431.446 380.897 431.338 380.393 431.338C379.841 431.338 379.349 431.462 378.917 431.71C378.485 431.958 378.145 432.314 377.897 432.778C377.657 433.242 377.537 433.782 377.537 434.398C377.537 435.014 377.657 435.554 377.897 436.018C378.145 436.482 378.485 436.842 378.917 437.098C379.349 437.346 379.841 437.47 380.393 437.47C380.897 437.47 381.341 437.362 381.725 437.146C382.109 436.93 382.409 436.602 382.625 436.162H384.269C383.957 436.962 383.453 437.578 382.757 438.01C382.069 438.442 381.281 438.658 380.393 438.658C379.609 438.658 378.893 438.478 378.245 438.118C377.597 437.75 377.081 437.242 376.697 436.594C376.321 435.946 376.133 435.214 376.133 434.398ZM389.29 431.866C389.794 431.866 390.242 431.974 390.634 432.19C391.034 432.406 391.346 432.726 391.57 433.15C391.802 433.574 391.918 434.086 391.918 434.686V438.586H390.562V434.89C390.562 434.298 390.414 433.846 390.118 433.534C389.822 433.214 389.418 433.054 388.906 433.054C388.394 433.054 387.986 433.214 387.682 433.534C387.386 433.846 387.238 434.298 387.238 434.89V438.586H385.87V429.706H387.238V432.742C387.47 432.462 387.762 432.246 388.114 432.094C388.474 431.942 388.866 431.866 389.29 431.866ZM399.651 431.974V438.586H398.283V437.806C398.067 438.078 397.783 438.294 397.431 438.454C397.087 438.606 396.719 438.682 396.327 438.682C395.807 438.682 395.339 438.574 394.923 438.358C394.515 438.142 394.191 437.822 393.951 437.398C393.719 436.974 393.603 436.462 393.603 435.862V431.974H394.959V435.658C394.959 436.25 395.107 436.706 395.403 437.026C395.699 437.338 396.103 437.494 396.615 437.494C397.127 437.494 397.531 437.338 397.827 437.026C398.131 436.706 398.283 436.25 398.283 435.658V431.974H399.651ZM402.824 432.934C403.024 432.598 403.288 432.338 403.616 432.154C403.952 431.962 404.348 431.866 404.804 431.866V433.282H404.456C403.92 433.282 403.512 433.418 403.232 433.69C402.96 433.962 402.824 434.434 402.824 435.106V438.586H401.456V431.974H402.824V432.934ZM405.606 435.274C405.606 434.594 405.742 433.998 406.014 433.486C406.294 432.966 406.678 432.566 407.166 432.286C407.654 432.006 408.214 431.866 408.846 431.866C409.646 431.866 410.306 432.058 410.826 432.442C411.354 432.818 411.71 433.358 411.894 434.062H410.418C410.298 433.734 410.106 433.478 409.842 433.294C409.578 433.11 409.246 433.018 408.846 433.018C408.286 433.018 407.838 433.218 407.502 433.618C407.174 434.01 407.01 434.562 407.01 435.274C407.01 435.986 407.174 436.542 407.502 436.942C407.838 437.342 408.286 437.542 408.846 437.542C409.638 437.542 410.162 437.194 410.418 436.498H411.894C411.702 437.17 411.342 437.706 410.814 438.106C410.286 438.498 409.63 438.694 408.846 438.694C408.214 438.694 407.654 438.554 407.166 438.274C406.678 437.986 406.294 437.586 406.014 437.074C405.742 436.554 405.606 435.954 405.606 435.274ZM416.677 431.866C417.181 431.866 417.629 431.974 418.021 432.19C418.421 432.406 418.733 432.726 418.957 433.15C419.189 433.574 419.305 434.086 419.305 434.686V438.586H417.949V434.89C417.949 434.298 417.801 433.846 417.505 433.534C417.209 433.214 416.805 433.054 416.293 433.054C415.781 433.054 415.373 433.214 415.069 433.534C414.773 433.846 414.625 434.298 414.625 434.89V438.586H413.257V429.706H414.625V432.742C414.857 432.462 415.149 432.246 415.501 432.094C415.861 431.942 416.253 431.866 416.677 431.866Z" fill="#87888C"/>
<path d="M4 546.345H476V629.828C476 638.112 469.284 644.828 461 644.828H19C10.7157 644.828 4 638.112 4 629.828V546.345Z" fill="#292929" fill-opacity="0.84"/>
<path d="M267.065 619.584C267.113 618.84 267.397 618.26 267.917 617.844C268.445 617.428 269.117 617.22 269.933 617.22C270.493 617.22 270.977 617.32 271.385 617.52C271.793 617.72 272.101 617.992 272.309 618.336C272.517 618.68 272.621 619.068 272.621 619.5C272.621 619.996 272.489 620.42 272.225 620.772C271.961 621.124 271.645 621.36 271.277 621.48V621.528C271.749 621.672 272.117 621.936 272.381 622.32C272.645 622.696 272.777 623.18 272.777 623.772C272.777 624.244 272.669 624.664 272.453 625.032C272.237 625.4 271.917 625.692 271.493 625.908C271.069 626.116 270.561 626.22 269.969 626.22C269.105 626.22 268.393 626 267.833 625.56C267.281 625.112 266.985 624.472 266.945 623.64H268.265C268.297 624.064 268.461 624.412 268.757 624.684C269.053 624.948 269.453 625.08 269.957 625.08C270.445 625.08 270.821 624.948 271.085 624.684C271.349 624.412 271.481 624.064 271.481 623.64C271.481 623.08 271.301 622.684 270.941 622.452C270.589 622.212 270.045 622.092 269.309 622.092H268.997V620.964H269.321C269.969 620.956 270.461 620.848 270.797 620.64C271.141 620.432 271.313 620.104 271.313 619.656C271.313 619.272 271.189 618.968 270.941 618.744C270.693 618.512 270.341 618.396 269.885 618.396C269.437 618.396 269.089 618.512 268.841 618.744C268.593 618.968 268.445 619.248 268.397 619.584H267.065ZM285.515 619.452C286.035 619.452 286.499 619.56 286.907 619.776C287.323 619.992 287.647 620.312 287.879 620.736C288.119 621.16 288.239 621.672 288.239 622.272V626.172H286.883V622.476C286.883 621.884 286.735 621.432 286.439 621.12C286.143 620.8 285.739 620.64 285.227 620.64C284.715 620.64 284.307 620.8 284.003 621.12C283.707 621.432 283.559 621.884 283.559 622.476V626.172H282.203V622.476C282.203 621.884 282.055 621.432 281.759 621.12C281.463 620.8 281.059 620.64 280.547 620.64C280.035 620.64 279.627 620.8 279.323 621.12C279.027 621.432 278.879 621.884 278.879 622.476V626.172H277.511V619.56H278.879V620.316C279.103 620.044 279.387 619.832 279.731 619.68C280.075 619.528 280.443 619.452 280.835 619.452C281.363 619.452 281.835 619.564 282.251 619.788C282.667 620.012 282.987 620.336 283.211 620.76C283.411 620.36 283.723 620.044 284.147 619.812C284.571 619.572 285.027 619.452 285.515 619.452ZM290.676 618.684C290.428 618.684 290.22 618.6 290.052 618.432C289.884 618.264 289.8 618.056 289.8 617.808C289.8 617.56 289.884 617.352 290.052 617.184C290.22 617.016 290.428 616.932 290.676 616.932C290.916 616.932 291.12 617.016 291.288 617.184C291.456 617.352 291.54 617.56 291.54 617.808C291.54 618.056 291.456 618.264 291.288 618.432C291.12 618.6 290.916 618.684 290.676 618.684ZM291.348 619.56V626.172H289.98V619.56H291.348ZM296.48 619.452C297 619.452 297.464 619.56 297.872 619.776C298.288 619.992 298.612 620.312 298.844 620.736C299.076 621.16 299.192 621.672 299.192 622.272V626.172H297.836V622.476C297.836 621.884 297.688 621.432 297.392 621.12C297.096 620.8 296.692 620.64 296.18 620.64C295.668 620.64 295.26 620.8 294.956 621.12C294.66 621.432 294.512 621.884 294.512 622.476V626.172H293.144V619.56H294.512V620.316C294.736 620.044 295.02 619.832 295.364 619.68C295.716 619.528 296.088 619.452 296.48 619.452Z" fill="#87888C"/>
<path d="M30.8237 570.864C30.8237 569.971 31.023 569.174 31.4217 568.472C31.829 567.761 32.3793 567.211 33.0727 566.821C33.7747 566.422 34.559 566.223 35.4257 566.223C36.4397 566.223 37.328 566.483 38.0907 567.003C38.8533 567.523 39.3863 568.242 39.6897 569.161H37.5967C37.3887 568.727 37.094 568.402 36.7127 568.186C36.34 567.969 35.9067 567.861 35.4127 567.861C34.884 567.861 34.4117 567.986 33.9957 568.238C33.5883 568.48 33.2677 568.827 33.0337 569.278C32.8083 569.728 32.6957 570.257 32.6957 570.864C32.6957 571.462 32.8083 571.99 33.0337 572.45C33.2677 572.9 33.5883 573.251 33.9957 573.503C34.4117 573.745 34.884 573.867 35.4127 573.867C35.9067 573.867 36.34 573.758 36.7127 573.542C37.094 573.316 37.3887 572.987 37.5967 572.554H39.6897C39.3863 573.481 38.8533 574.205 38.0907 574.725C37.3367 575.236 36.4483 575.492 35.4257 575.492C34.559 575.492 33.7747 575.297 33.0727 574.907C32.3793 574.508 31.829 573.958 31.4217 573.256C31.023 572.554 30.8237 571.756 30.8237 570.864ZM43.0642 565.794V575.414H41.2442V565.794H43.0642ZM51.6613 568.212V575.414H49.8283V574.504C49.5943 574.816 49.2867 575.063 48.9053 575.245C48.5327 575.418 48.1253 575.505 47.6833 575.505C47.12 575.505 46.6217 575.388 46.1883 575.154C45.755 574.911 45.4127 574.56 45.1613 574.101C44.9187 573.633 44.7973 573.078 44.7973 572.437V568.212H46.6173V572.177C46.6173 572.749 46.7603 573.191 47.0463 573.503C47.3323 573.806 47.7223 573.958 48.2163 573.958C48.719 573.958 49.1133 573.806 49.3993 573.503C49.6853 573.191 49.8283 572.749 49.8283 572.177V568.212H51.6613ZM55.2771 569.265C55.5111 568.918 55.8317 568.636 56.2391 568.42C56.6551 568.203 57.1274 568.095 57.6561 568.095C58.2714 568.095 58.8261 568.246 59.3201 568.55C59.8227 568.853 60.2171 569.286 60.5031 569.85C60.7977 570.404 60.9451 571.05 60.9451 571.787C60.9451 572.523 60.7977 573.178 60.5031 573.75C60.2171 574.313 59.8227 574.751 59.3201 575.063C58.8261 575.375 58.2714 575.531 57.6561 575.531C57.1187 575.531 56.6464 575.427 56.2391 575.219C55.8404 575.002 55.5197 574.725 55.2771 574.387V575.414H53.4571V565.794H55.2771V569.265ZM59.0861 571.787C59.0861 571.353 58.9951 570.981 58.8131 570.669C58.6397 570.348 58.4057 570.105 58.1111 569.941C57.8251 569.776 57.5131 569.694 57.1751 569.694C56.8457 569.694 56.5337 569.78 56.2391 569.954C55.9531 570.118 55.7191 570.361 55.5371 570.682C55.3637 571.002 55.2771 571.379 55.2771 571.813C55.2771 572.246 55.3637 572.623 55.5371 572.944C55.7191 573.264 55.9531 573.511 56.2391 573.685C56.5337 573.849 56.8457 573.932 57.1751 573.932C57.5131 573.932 57.8251 573.845 58.1111 573.672C58.4057 573.498 58.6397 573.251 58.8131 572.931C58.9951 572.61 59.0861 572.229 59.0861 571.787ZM71.5403 566.34V567.809H69.1223V575.414H67.3023V567.809H64.8843V566.34H71.5403ZM76.0662 575.531C75.3729 575.531 74.7489 575.379 74.1942 575.076C73.6395 574.764 73.2019 574.326 72.8812 573.763C72.5692 573.199 72.4132 572.549 72.4132 571.813C72.4132 571.076 72.5735 570.426 72.8942 569.863C73.2235 569.299 73.6699 568.866 74.2332 568.563C74.7965 568.251 75.4249 568.095 76.1182 568.095C76.8115 568.095 77.4399 568.251 78.0032 568.563C78.5665 568.866 79.0085 569.299 79.3292 569.863C79.6585 570.426 79.8232 571.076 79.8232 571.813C79.8232 572.549 79.6542 573.199 79.3162 573.763C78.9869 574.326 78.5362 574.764 77.9642 575.076C77.4009 575.379 76.7682 575.531 76.0662 575.531ZM76.0662 573.945C76.3955 573.945 76.7032 573.867 76.9892 573.711C77.2839 573.546 77.5179 573.303 77.6912 572.983C77.8645 572.662 77.9512 572.272 77.9512 571.813C77.9512 571.128 77.7692 570.604 77.4052 570.24C77.0499 569.867 76.6122 569.681 76.0922 569.681C75.5722 569.681 75.1345 569.867 74.7792 570.24C74.4325 570.604 74.2592 571.128 74.2592 571.813C74.2592 572.497 74.4282 573.026 74.7662 573.399C75.1129 573.763 75.5462 573.945 76.0662 573.945ZM91.1422 568.212L89.0362 575.414H87.0732L85.7602 570.383L84.4472 575.414H82.4712L80.3522 568.212H82.1982L83.4722 573.698L84.8502 568.212H86.7742L88.1262 573.685L89.4002 568.212H91.1422ZM96.118 568.108C96.976 568.108 97.6693 568.381 98.198 568.927C98.7266 569.464 98.991 570.218 98.991 571.189V575.414H97.171V571.436C97.171 570.864 97.028 570.426 96.742 570.123C96.456 569.811 96.066 569.655 95.572 569.655C95.0693 569.655 94.6706 569.811 94.376 570.123C94.09 570.426 93.947 570.864 93.947 571.436V575.414H92.127V568.212H93.947V569.109C94.1896 568.797 94.4973 568.554 94.87 568.381C95.2513 568.199 95.6673 568.108 96.118 568.108ZM110.137 569.07C109.929 568.688 109.643 568.398 109.279 568.199C108.915 567.999 108.491 567.9 108.005 567.9C107.468 567.9 106.991 568.021 106.575 568.264C106.159 568.506 105.834 568.853 105.6 569.304C105.366 569.754 105.249 570.274 105.249 570.864C105.249 571.47 105.366 571.999 105.6 572.45C105.843 572.9 106.177 573.247 106.601 573.49C107.026 573.732 107.52 573.854 108.083 573.854C108.777 573.854 109.344 573.672 109.786 573.308C110.228 572.935 110.519 572.419 110.657 571.761H107.537V570.37H112.451V571.956C112.33 572.588 112.07 573.173 111.671 573.711C111.273 574.248 110.757 574.681 110.124 575.011C109.5 575.331 108.798 575.492 108.018 575.492C107.143 575.492 106.35 575.297 105.639 574.907C104.937 574.508 104.383 573.958 103.975 573.256C103.577 572.554 103.377 571.756 103.377 570.864C103.377 569.971 103.577 569.174 103.975 568.472C104.383 567.761 104.937 567.211 105.639 566.821C106.35 566.422 107.139 566.223 108.005 566.223C109.028 566.223 109.916 566.474 110.67 566.977C111.424 567.471 111.944 568.168 112.23 569.07H110.137ZM113.33 571.787C113.33 571.059 113.473 570.413 113.759 569.85C114.054 569.286 114.448 568.853 114.942 568.55C115.445 568.246 116.004 568.095 116.619 568.095C117.156 568.095 117.624 568.203 118.023 568.42C118.43 568.636 118.755 568.909 118.998 569.239V568.212H120.831V575.414H118.998V574.361C118.764 574.699 118.439 574.98 118.023 575.206C117.616 575.422 117.143 575.531 116.606 575.531C115.999 575.531 115.445 575.375 114.942 575.063C114.448 574.751 114.054 574.313 113.759 573.75C113.473 573.178 113.33 572.523 113.33 571.787ZM118.998 571.813C118.998 571.371 118.911 570.994 118.738 570.682C118.565 570.361 118.331 570.118 118.036 569.954C117.741 569.78 117.425 569.694 117.087 569.694C116.749 569.694 116.437 569.776 116.151 569.941C115.865 570.105 115.631 570.348 115.449 570.669C115.276 570.981 115.189 571.353 115.189 571.787C115.189 572.22 115.276 572.601 115.449 572.931C115.631 573.251 115.865 573.498 116.151 573.672C116.446 573.845 116.758 573.932 117.087 573.932C117.425 573.932 117.741 573.849 118.036 573.685C118.331 573.511 118.565 573.269 118.738 572.957C118.911 572.636 118.998 572.255 118.998 571.813ZM124.428 569.33C124.662 568.948 124.966 568.649 125.338 568.433C125.72 568.216 126.153 568.108 126.638 568.108V570.019H126.157C125.585 570.019 125.152 570.153 124.857 570.422C124.571 570.69 124.428 571.158 124.428 571.826V575.414H122.608V568.212H124.428V569.33ZM127.396 571.787C127.396 571.059 127.539 570.413 127.825 569.85C128.12 569.286 128.519 568.853 129.021 568.55C129.524 568.246 130.083 568.095 130.698 568.095C131.166 568.095 131.613 568.199 132.037 568.407C132.462 568.606 132.8 568.875 133.051 569.213V565.794H134.897V575.414H133.051V574.348C132.826 574.703 132.51 574.989 132.102 575.206C131.695 575.422 131.223 575.531 130.685 575.531C130.079 575.531 129.524 575.375 129.021 575.063C128.519 574.751 128.12 574.313 127.825 573.75C127.539 573.178 127.396 572.523 127.396 571.787ZM133.064 571.813C133.064 571.371 132.978 570.994 132.804 570.682C132.631 570.361 132.397 570.118 132.102 569.954C131.808 569.78 131.491 569.694 131.153 569.694C130.815 569.694 130.503 569.776 130.217 569.941C129.931 570.105 129.697 570.348 129.515 570.669C129.342 570.981 129.255 571.353 129.255 571.787C129.255 572.22 129.342 572.601 129.515 572.931C129.697 573.251 129.931 573.498 130.217 573.672C130.512 573.845 130.824 573.932 131.153 573.932C131.491 573.932 131.808 573.849 132.102 573.685C132.397 573.511 132.631 573.269 132.804 572.957C132.978 572.636 133.064 572.255 133.064 571.813ZM143.37 571.657C143.37 571.917 143.352 572.151 143.318 572.359H138.053C138.096 572.879 138.278 573.286 138.599 573.581C138.919 573.875 139.314 574.023 139.782 574.023C140.458 574.023 140.939 573.732 141.225 573.152H143.188C142.98 573.845 142.581 574.417 141.992 574.868C141.402 575.31 140.679 575.531 139.821 575.531C139.127 575.531 138.503 575.379 137.949 575.076C137.403 574.764 136.974 574.326 136.662 573.763C136.358 573.199 136.207 572.549 136.207 571.813C136.207 571.067 136.358 570.413 136.662 569.85C136.965 569.286 137.39 568.853 137.936 568.55C138.482 568.246 139.11 568.095 139.821 568.095C140.505 568.095 141.116 568.242 141.654 568.537C142.2 568.831 142.62 569.252 142.915 569.798C143.218 570.335 143.37 570.955 143.37 571.657ZM141.485 571.137C141.476 570.669 141.307 570.296 140.978 570.019C140.648 569.733 140.245 569.59 139.769 569.59C139.318 569.59 138.937 569.728 138.625 570.006C138.321 570.274 138.135 570.651 138.066 571.137H141.485ZM148.689 568.108C149.547 568.108 150.241 568.381 150.769 568.927C151.298 569.464 151.562 570.218 151.562 571.189V575.414H149.742V571.436C149.742 570.864 149.599 570.426 149.313 570.123C149.027 569.811 148.637 569.655 148.143 569.655C147.641 569.655 147.242 569.811 146.947 570.123C146.661 570.426 146.518 570.864 146.518 571.436V575.414H144.698V568.212H146.518V569.109C146.761 568.797 147.069 568.554 147.441 568.381C147.823 568.199 148.239 568.108 148.689 568.108ZM156.049 575.531C155.46 575.531 154.931 575.427 154.463 575.219C153.995 575.002 153.622 574.712 153.345 574.348C153.076 573.984 152.929 573.581 152.903 573.139H154.736C154.771 573.416 154.905 573.646 155.139 573.828C155.382 574.01 155.681 574.101 156.036 574.101C156.383 574.101 156.651 574.031 156.842 573.893C157.041 573.754 157.141 573.576 157.141 573.36C157.141 573.126 157.02 572.952 156.777 572.84C156.543 572.718 156.166 572.588 155.646 572.45C155.109 572.32 154.667 572.185 154.32 572.047C153.982 571.908 153.687 571.696 153.436 571.41C153.193 571.124 153.072 570.738 153.072 570.253C153.072 569.854 153.185 569.49 153.41 569.161C153.644 568.831 153.973 568.571 154.398 568.381C154.831 568.19 155.338 568.095 155.919 568.095C156.777 568.095 157.462 568.311 157.973 568.745C158.484 569.169 158.766 569.746 158.818 570.474H157.076C157.05 570.188 156.929 569.962 156.712 569.798C156.504 569.624 156.222 569.538 155.867 569.538C155.538 569.538 155.282 569.598 155.1 569.72C154.927 569.841 154.84 570.01 154.84 570.227C154.84 570.469 154.961 570.656 155.204 570.786C155.447 570.907 155.824 571.033 156.335 571.163C156.855 571.293 157.284 571.427 157.622 571.566C157.96 571.704 158.25 571.921 158.493 572.216C158.744 572.502 158.874 572.883 158.883 573.36C158.883 573.776 158.766 574.148 158.532 574.478C158.307 574.807 157.977 575.067 157.544 575.258C157.119 575.44 156.621 575.531 156.049 575.531Z" fill="white"/>
<path d="M40.0527 593.212V601.552H38.6847V595.84L36.1407 601.552H35.1927L32.6367 595.84V601.552H31.2687V593.212H32.7447L35.6727 599.752L38.5887 593.212H40.0527ZM50.6347 593.212V601.552H49.2667V595.84L46.7227 601.552H45.7747L43.2187 595.84V601.552H41.8507V593.212H43.3267L46.2547 599.752L49.1707 593.212H50.6347ZM60.4579 593.212V594.328H56.9179V596.788H59.6779V597.904H56.9179V601.552H55.5499V593.212H60.4579ZM67.7857 598.084C67.7857 598.332 67.7697 598.556 67.7377 598.756H62.6857C62.7257 599.284 62.9217 599.708 63.2737 600.028C63.6257 600.348 64.0577 600.508 64.5697 600.508C65.3057 600.508 65.8257 600.2 66.1297 599.584H67.6057C67.4057 600.192 67.0417 600.692 66.5137 601.084C65.9937 601.468 65.3457 601.66 64.5697 601.66C63.9377 601.66 63.3697 601.52 62.8657 601.24C62.3697 600.952 61.9777 600.552 61.6897 600.04C61.4097 599.52 61.2697 598.92 61.2697 598.24C61.2697 597.56 61.4057 596.964 61.6777 596.452C61.9577 595.932 62.3457 595.532 62.8417 595.252C63.3457 594.972 63.9217 594.832 64.5697 594.832C65.1937 594.832 65.7497 594.968 66.2377 595.24C66.7257 595.512 67.1057 595.896 67.3777 596.392C67.6497 596.88 67.7857 597.444 67.7857 598.084ZM66.3577 597.652C66.3497 597.148 66.1697 596.744 65.8177 596.44C65.4657 596.136 65.0297 595.984 64.5097 595.984C64.0377 595.984 63.6337 596.136 63.2977 596.44C62.9617 596.736 62.7617 597.14 62.6977 597.652H66.3577ZM75.1919 598.084C75.1919 598.332 75.1759 598.556 75.1439 598.756H70.0919C70.1319 599.284 70.3279 599.708 70.6799 600.028C71.0319 600.348 71.4639 600.508 71.9759 600.508C72.7119 600.508 73.2319 600.2 73.5359 599.584H75.0119C74.8119 600.192 74.4479 600.692 73.9199 601.084C73.3999 601.468 72.7519 601.66 71.9759 601.66C71.3439 601.66 70.7759 601.52 70.2719 601.24C69.7759 600.952 69.3839 600.552 69.0959 600.04C68.8159 599.52 68.6759 598.92 68.6759 598.24C68.6759 597.56 68.8119 596.964 69.0839 596.452C69.3639 595.932 69.7519 595.532 70.2479 595.252C70.7519 594.972 71.3279 594.832 71.9759 594.832C72.5999 594.832 73.1559 594.968 73.6439 595.24C74.1319 595.512 74.5119 595.896 74.7839 596.392C75.0559 596.88 75.1919 597.444 75.1919 598.084ZM73.7639 597.652C73.7559 597.148 73.5759 596.744 73.2239 596.44C72.8719 596.136 72.4359 595.984 71.9159 595.984C71.4439 595.984 71.0399 596.136 70.7039 596.44C70.3679 596.736 70.1679 597.14 70.1039 597.652H73.7639ZM76.0822 598.216C76.0822 597.552 76.2182 596.964 76.4902 596.452C76.7702 595.94 77.1462 595.544 77.6182 595.264C78.0982 594.976 78.6302 594.832 79.2142 594.832C79.6462 594.832 80.0702 594.928 80.4862 595.12C80.9102 595.304 81.2462 595.552 81.4942 595.864V592.672H82.8742V601.552H81.4942V600.556C81.2702 600.876 80.9582 601.14 80.5582 601.348C80.1662 601.556 79.7142 601.66 79.2022 601.66C78.6262 601.66 78.0982 601.516 77.6182 601.228C77.1462 600.932 76.7702 600.524 76.4902 600.004C76.2182 599.476 76.0822 598.88 76.0822 598.216ZM81.4942 598.24C81.4942 597.784 81.3982 597.388 81.2062 597.052C81.0222 596.716 80.7782 596.46 80.4742 596.284C80.1702 596.108 79.8422 596.02 79.4902 596.02C79.1382 596.02 78.8102 596.108 78.5062 596.284C78.2022 596.452 77.9542 596.704 77.7622 597.04C77.5782 597.368 77.4862 597.76 77.4862 598.216C77.4862 598.672 77.5782 599.072 77.7622 599.416C77.9542 599.76 78.2022 600.024 78.5062 600.208C78.8182 600.384 79.1462 600.472 79.4902 600.472C79.8422 600.472 80.1702 600.384 80.4742 600.208C80.7782 600.032 81.0222 599.776 81.2062 599.44C81.3982 599.096 81.4942 598.696 81.4942 598.24ZM90.731 598.084C90.731 598.332 90.715 598.556 90.683 598.756H85.631C85.671 599.284 85.867 599.708 86.219 600.028C86.571 600.348 87.003 600.508 87.515 600.508C88.251 600.508 88.771 600.2 89.075 599.584H90.551C90.351 600.192 89.987 600.692 89.459 601.084C88.939 601.468 88.291 601.66 87.515 601.66C86.883 601.66 86.315 601.52 85.811 601.24C85.315 600.952 84.923 600.552 84.635 600.04C84.355 599.52 84.215 598.92 84.215 598.24C84.215 597.56 84.351 596.964 84.623 596.452C84.903 595.932 85.291 595.532 85.787 595.252C86.291 594.972 86.867 594.832 87.515 594.832C88.139 594.832 88.695 594.968 89.183 595.24C89.671 595.512 90.051 595.896 90.323 596.392C90.595 596.88 90.731 597.444 90.731 598.084ZM89.303 597.652C89.295 597.148 89.115 596.744 88.763 596.44C88.411 596.136 87.975 595.984 87.455 595.984C86.983 595.984 86.579 596.136 86.243 596.44C85.907 596.736 85.707 597.14 85.643 597.652H89.303ZM93.4452 595.9C93.6452 595.564 93.9092 595.304 94.2372 595.12C94.5732 594.928 94.9692 594.832 95.4252 594.832V596.248H95.0772C94.5412 596.248 94.1332 596.384 93.8532 596.656C93.5812 596.928 93.4452 597.4 93.4452 598.072V601.552H92.0772V594.94H93.4452V595.9ZM104.132 601.552L102.212 598.216H101.168V601.552H99.7999V593.212H102.68C103.32 593.212 103.86 593.324 104.3 593.548C104.748 593.772 105.08 594.072 105.296 594.448C105.52 594.824 105.632 595.244 105.632 595.708C105.632 596.252 105.472 596.748 105.152 597.196C104.84 597.636 104.356 597.936 103.7 598.096L105.764 601.552H104.132ZM101.168 597.124H102.68C103.192 597.124 103.576 596.996 103.832 596.74C104.096 596.484 104.228 596.14 104.228 595.708C104.228 595.276 104.1 594.94 103.844 594.7C103.588 594.452 103.2 594.328 102.68 594.328H101.168V597.124ZM110.25 601.66C109.626 601.66 109.062 601.52 108.558 601.24C108.054 600.952 107.658 600.552 107.37 600.04C107.082 599.52 106.938 598.92 106.938 598.24C106.938 597.568 107.086 596.972 107.382 596.452C107.678 595.932 108.082 595.532 108.594 595.252C109.106 594.972 109.678 594.832 110.31 594.832C110.942 594.832 111.514 594.972 112.026 595.252C112.538 595.532 112.942 595.932 113.238 596.452C113.534 596.972 113.682 597.568 113.682 598.24C113.682 598.912 113.53 599.508 113.226 600.028C112.922 600.548 112.506 600.952 111.978 601.24C111.458 601.52 110.882 601.66 110.25 601.66ZM110.25 600.472C110.602 600.472 110.93 600.388 111.234 600.22C111.546 600.052 111.798 599.8 111.99 599.464C112.182 599.128 112.278 598.72 112.278 598.24C112.278 597.76 112.186 597.356 112.002 597.028C111.818 596.692 111.574 596.44 111.27 596.272C110.966 596.104 110.638 596.02 110.286 596.02C109.934 596.02 109.606 596.104 109.302 596.272C109.006 596.44 108.77 596.692 108.594 597.028C108.418 597.356 108.33 597.76 108.33 598.24C108.33 598.952 108.51 599.504 108.87 599.896C109.238 600.28 109.698 600.472 110.25 600.472ZM114.578 598.216C114.578 597.552 114.714 596.964 114.986 596.452C115.266 595.94 115.642 595.544 116.114 595.264C116.594 594.976 117.122 594.832 117.698 594.832C118.218 594.832 118.67 594.936 119.054 595.144C119.446 595.344 119.758 595.596 119.99 595.9V594.94H121.37V601.552H119.99V600.568C119.758 600.88 119.442 601.14 119.042 601.348C118.642 601.556 118.186 601.66 117.674 601.66C117.106 601.66 116.586 601.516 116.114 601.228C115.642 600.932 115.266 600.524 114.986 600.004C114.714 599.476 114.578 598.88 114.578 598.216ZM119.99 598.24C119.99 597.784 119.894 597.388 119.702 597.052C119.518 596.716 119.274 596.46 118.97 596.284C118.666 596.108 118.338 596.02 117.986 596.02C117.634 596.02 117.306 596.108 117.002 596.284C116.698 596.452 116.45 596.704 116.258 597.04C116.074 597.368 115.982 597.76 115.982 598.216C115.982 598.672 116.074 599.072 116.258 599.416C116.45 599.76 116.698 600.024 117.002 600.208C117.314 600.384 117.642 600.472 117.986 600.472C118.338 600.472 118.666 600.384 118.97 600.208C119.274 600.032 119.518 599.776 119.702 599.44C119.894 599.096 119.99 598.696 119.99 598.24ZM122.711 598.216C122.711 597.552 122.847 596.964 123.119 596.452C123.399 595.94 123.775 595.544 124.247 595.264C124.727 594.976 125.259 594.832 125.843 594.832C126.275 594.832 126.699 594.928 127.115 595.12C127.539 595.304 127.875 595.552 128.123 595.864V592.672H129.503V601.552H128.123V600.556C127.899 600.876 127.587 601.14 127.187 601.348C126.795 601.556 126.343 601.66 125.831 601.66C125.255 601.66 124.727 601.516 124.247 601.228C123.775 600.932 123.399 600.524 123.119 600.004C122.847 599.476 122.711 598.88 122.711 598.216ZM128.123 598.24C128.123 597.784 128.027 597.388 127.835 597.052C127.651 596.716 127.407 596.46 127.103 596.284C126.799 596.108 126.471 596.02 126.119 596.02C125.767 596.02 125.439 596.108 125.135 596.284C124.831 596.452 124.583 596.704 124.391 597.04C124.207 597.368 124.115 597.76 124.115 598.216C124.115 598.672 124.207 599.072 124.391 599.416C124.583 599.76 124.831 600.024 125.135 600.208C125.447 600.384 125.775 600.472 126.119 600.472C126.471 600.472 126.799 600.384 127.103 600.208C127.407 600.032 127.651 599.776 127.835 599.44C128.027 599.096 128.123 598.696 128.123 598.24ZM132.8 599.908L131.348 603.22H130.46L131.312 599.908H132.8ZM141.708 601.552L138.48 597.82V601.552H137.112V593.212H138.48V597.016L141.72 593.212H143.436L139.812 597.388L143.496 601.552H141.708ZM147.574 601.66C146.95 601.66 146.386 601.52 145.882 601.24C145.378 600.952 144.982 600.552 144.694 600.04C144.406 599.52 144.262 598.92 144.262 598.24C144.262 597.568 144.41 596.972 144.706 596.452C145.002 595.932 145.406 595.532 145.918 595.252C146.43 594.972 147.002 594.832 147.634 594.832C148.266 594.832 148.838 594.972 149.35 595.252C149.862 595.532 150.266 595.932 150.562 596.452C150.858 596.972 151.006 597.568 151.006 598.24C151.006 598.912 150.854 599.508 150.55 600.028C150.246 600.548 149.83 600.952 149.302 601.24C148.782 601.52 148.206 601.66 147.574 601.66ZM147.574 600.472C147.926 600.472 148.254 600.388 148.558 600.22C148.87 600.052 149.122 599.8 149.314 599.464C149.506 599.128 149.602 598.72 149.602 598.24C149.602 597.76 149.51 597.356 149.326 597.028C149.142 596.692 148.898 596.44 148.594 596.272C148.29 596.104 147.962 596.02 147.61 596.02C147.258 596.02 146.93 596.104 146.626 596.272C146.33 596.44 146.094 596.692 145.918 597.028C145.742 597.356 145.654 597.76 145.654 598.24C145.654 598.952 145.834 599.504 146.194 599.896C146.562 600.28 147.022 600.472 147.574 600.472ZM153.726 592.672V601.552H152.358V592.672H153.726ZM158.139 598.252L161.187 601.552H159.339L156.891 598.708V601.552H155.523V592.672H156.891V597.832L159.291 594.94H161.187L158.139 598.252ZM161.711 598.216C161.711 597.552 161.847 596.964 162.119 596.452C162.399 595.94 162.775 595.544 163.247 595.264C163.727 594.976 164.255 594.832 164.831 594.832C165.351 594.832 165.803 594.936 166.187 595.144C166.579 595.344 166.891 595.596 167.123 595.9V594.94H168.503V601.552H167.123V600.568C166.891 600.88 166.575 601.14 166.175 601.348C165.775 601.556 165.319 601.66 164.807 601.66C164.239 601.66 163.719 601.516 163.247 601.228C162.775 600.932 162.399 600.524 162.119 600.004C161.847 599.476 161.711 598.88 161.711 598.216ZM167.123 598.24C167.123 597.784 167.027 597.388 166.835 597.052C166.651 596.716 166.407 596.46 166.103 596.284C165.799 596.108 165.471 596.02 165.119 596.02C164.767 596.02 164.439 596.108 164.135 596.284C163.831 596.452 163.583 596.704 163.391 597.04C163.207 597.368 163.115 597.76 163.115 598.216C163.115 598.672 163.207 599.072 163.391 599.416C163.583 599.76 163.831 600.024 164.135 600.208C164.447 600.384 164.775 600.472 165.119 600.472C165.471 600.472 165.799 600.384 166.103 600.208C166.407 600.032 166.651 599.776 166.835 599.44C167.027 599.096 167.123 598.696 167.123 598.24ZM171.896 596.056V599.716C171.896 599.964 171.952 600.144 172.064 600.256C172.184 600.36 172.384 600.412 172.664 600.412H173.504V601.552H172.424C171.808 601.552 171.336 601.408 171.008 601.12C170.68 600.832 170.516 600.364 170.516 599.716V596.056H169.736V594.94H170.516V593.296H171.896V594.94H173.504V596.056H171.896ZM174.309 598.216C174.309 597.552 174.445 596.964 174.717 596.452C174.997 595.94 175.373 595.544 175.845 595.264C176.325 594.976 176.853 594.832 177.429 594.832C177.949 594.832 178.401 594.936 178.785 595.144C179.177 595.344 179.489 595.596 179.721 595.9V594.94H181.101V601.552H179.721V600.568C179.489 600.88 179.173 601.14 178.773 601.348C178.373 601.556 177.917 601.66 177.405 601.66C176.837 601.66 176.317 601.516 175.845 601.228C175.373 600.932 174.997 600.524 174.717 600.004C174.445 599.476 174.309 598.88 174.309 598.216ZM179.721 598.24C179.721 597.784 179.625 597.388 179.433 597.052C179.249 596.716 179.005 596.46 178.701 596.284C178.397 596.108 178.069 596.02 177.717 596.02C177.365 596.02 177.037 596.108 176.733 596.284C176.429 596.452 176.181 596.704 175.989 597.04C175.805 597.368 175.713 597.76 175.713 598.216C175.713 598.672 175.805 599.072 175.989 599.416C176.181 599.76 176.429 600.024 176.733 600.208C177.045 600.384 177.373 600.472 177.717 600.472C178.069 600.472 178.397 600.384 178.701 600.208C179.005 600.032 179.249 599.776 179.433 599.44C179.625 599.096 179.721 598.696 179.721 598.24Z" fill="#87888C"/>
<path d="M31.8447 625.485C32.6127 624.821 33.2167 624.277 33.6567 623.853C34.1047 623.421 34.4767 622.973 34.7727 622.509C35.0687 622.045 35.2167 621.581 35.2167 621.117C35.2167 620.637 35.1007 620.261 34.8687 619.989C34.6447 619.717 34.2887 619.581 33.8007 619.581C33.3287 619.581 32.9607 619.733 32.6967 620.037C32.4407 620.333 32.3047 620.733 32.2887 621.237H30.9687C30.9927 620.325 31.2647 619.629 31.7847 619.149C32.3127 618.661 32.9807 618.417 33.7887 618.417C34.6607 618.417 35.3407 618.657 35.8287 619.137C36.3247 619.617 36.5727 620.257 36.5727 621.057C36.5727 621.633 36.4247 622.189 36.1287 622.725C35.8407 623.253 35.4927 623.729 35.0847 624.153C34.6847 624.569 34.1727 625.053 33.5487 625.605L33.0087 626.085H36.8127V627.225H30.9807V626.229L31.8447 625.485ZM45.9076 627.345L42.6796 623.613V627.345H41.3116V619.005H42.6796V622.809L45.9196 619.005H47.6356L44.0116 623.181L47.6956 627.345H45.9076ZM56.9094 620.625C57.4294 620.625 57.8934 620.733 58.3014 620.949C58.7174 621.165 59.0414 621.485 59.2734 621.909C59.5134 622.333 59.6334 622.845 59.6334 623.445V627.345H58.2774V623.649C58.2774 623.057 58.1294 622.605 57.8334 622.293C57.5374 621.973 57.1334 621.813 56.6214 621.813C56.1094 621.813 55.7014 621.973 55.3974 622.293C55.1014 622.605 54.9534 623.057 54.9534 623.649V627.345H53.5974V623.649C53.5974 623.057 53.4494 622.605 53.1534 622.293C52.8574 621.973 52.4534 621.813 51.9414 621.813C51.4294 621.813 51.0214 621.973 50.7174 622.293C50.4214 622.605 50.2734 623.057 50.2734 623.649V627.345H48.9054V620.733H50.2734V621.489C50.4974 621.217 50.7814 621.005 51.1254 620.853C51.4694 620.701 51.8374 620.625 52.2294 620.625C52.7574 620.625 53.2294 620.737 53.6454 620.961C54.0614 621.185 54.3814 621.509 54.6054 621.933C54.8054 621.533 55.1174 621.217 55.5414 620.985C55.9654 620.745 56.4214 620.625 56.9094 620.625Z" fill="#87888C"/>
<path d="M81.7864 624.129H255.822" stroke="#87888C" stroke-width="3" stroke-linecap="round"/>
<path d="M81.7888 624.088H171.442" stroke="#F87A0B" stroke-width="3" stroke-linecap="round"/>
<ellipse cx="420.626" cy="595.586" rx="29.0056" ry="25.7931" fill="#363636"/>
<path d="M427.419 601.663C427.886 601.25 428.635 601.25 429.102 601.663L432.189 603.879H432.243C432.867 604.441 432.867 605.351 432.243 605.912C431.618 606.474 430.605 606.474 429.981 605.912L427.419 603.301L427.321 603.204C427.14 603 427.04 602.746 427.04 602.482C427.04 602.175 427.176 601.88 427.419 601.663ZM418.907 584.839C421.656 584.839 424.293 585.821 426.237 587.568C428.181 589.316 429.273 591.686 429.273 594.157C429.273 599.303 424.632 603.475 418.907 603.475C413.181 603.475 408.54 599.303 408.54 594.157C408.54 589.011 413.181 584.839 418.907 584.839Z" fill="white"/>
<path d="M228.134 368.138L212.313 365.207L233.408 264.379C235.385 255.586 236.045 242.69 262.413 234.483L412.056 189.931L476 194.034V207.517L407.441 204.586L255.162 252.655L228.134 368.138Z" fill="#F8820B"/>
<path d="M251.028 270.056L237.922 326.109C236.867 330.621 232.484 333.534 227.915 332.758C223 331.924 219.768 327.166 220.804 322.29L232.767 265.982C233.847 260.9 238.86 257.671 243.934 258.79C249.024 259.913 252.214 264.98 251.028 270.056Z" fill="#651024"/>
<path d="M404.897 204.812L331.782 228.621L323.061 216.121L410.263 189.931L476 194.098V208.978L404.897 204.812Z" fill="#00FFA4"/>
</g>
<defs>
<filter id="filter0_d_52_1800" x="0" y="0" width="480" height="654" filterUnits="userSpaceOnUse" color-interpolation-filters="sRGB">
<feFlood flood-opacity="0" result="BackgroundImageFix"/>
<feColorMatrix in="SourceAlpha" type="matrix" values="0 0 0 0 0 0 0 0 0 0 0 0 0 0 0 0 0 0 127 0" result="hardAlpha"/>
<feOffset dy="4"/>
<feGaussianBlur stdDeviation="2"/>
<feComposite in2="hardAlpha" operator="out"/>
<feColorMatrix type="matrix" values="0 0 0 0 0.6075 0 0 0 0 0.28706 0 0 0 0 0.0420185 0 0 0 0.25 0"/>
<feBlend mode="normal" in2="BackgroundImageFix" result="effect1_dropShadow_52_1800"/>
<feBlend mode="normal" in="SourceGraphic" in2="effect1_dropShadow_52_1800" result="shape"/>
</filter>
<filter id="filter1_d_52_1800" x="-5" y="-5" width="490" height="664" filterUnits="userSpaceOnUse" color-interpolation-filters="sRGB">
<feFlood flood-opacity="0" result="BackgroundImageFix"/>
<feColorMatrix in="SourceAlpha" type="matrix" values="0 0 0 0 0 0 0 0 0 0 0 0 0 0 0 0 0 0 127 0" result="hardAlpha"/>
<feMorphology radius="5" operator="dilate" in="SourceAlpha" result="effect1_dropShadow_52_1800"/>
<feOffset dy="4"/>
<feGaussianBlur stdDeviation="2"/>
<feComposite in2="hardAlpha" operator="out"/>
<feColorMatrix type="matrix" values="0 0 0 0 0.514167 0 0 0 0 0.182015 0 0 0 0 0.098977 0 0 0 1 0"/>
<feBlend mode="normal" in2="BackgroundImageFix" result="effect1_dropShadow_52_1800"/>
<feBlend mode="normal" in="SourceGraphic" in2="effect1_dropShadow_52_1800" result="shape"/>
</filter>
<filter id="filter2_d_52_1800" x="0" y="87.931" width="480" height="533.241" filterUnits="userSpaceOnUse" color-interpolation-filters="sRGB">
<feFlood flood-opacity="0" result="BackgroundImageFix"/>
<feColorMatrix in="SourceAlpha" type="matrix" values="0 0 0 0 0 0 0 0 0 0 0 0 0 0 0 0 0 0 127 0" result="hardAlpha"/>
<feOffset dy="4"/>
<feGaussianBlur stdDeviation="2"/>
<feComposite in2="hardAlpha" operator="out"/>
<feColorMatrix type="matrix" values="0 0 0 0 0 0 0 0 0 0 0 0 0 0 0 0 0 0 0.25 0"/>
<feBlend mode="normal" in2="BackgroundImageFix" result="effect1_dropShadow_52_1800"/>
<feBlend mode="normal" in="SourceGraphic" in2="effect1_dropShadow_52_1800" result="shape"/>
</filter>
<clipPath id="clip0_52_1800">
<rect width="472" height="646" fill="white" transform="translate(4)"/>
</clipPath>
</defs>
</svg>
