<svg width="293" height="327" viewBox="0 0 293 327" fill="none" xmlns="http://www.w3.org/2000/svg">
<g clip-path="url(#clip0_27_212)">
<g filter="url(#filter0_d_27_212)">
<rect width="293" height="327" rx="10" fill="black"/>
<rect x="0.5" y="0.5" width="292" height="326" rx="9.5" stroke="#040404"/>
</g>
<path d="M105.037 120V108.72H109.741C110.957 108.72 111.89 108.976 112.541 109.488C113.202 110 113.533 110.72 113.533 111.648C113.533 112.341 113.325 112.923 112.909 113.392C112.493 113.861 111.922 114.176 111.197 114.336V114.096C112.029 114.203 112.674 114.496 113.133 114.976C113.592 115.456 113.821 116.091 113.821 116.88C113.821 117.883 113.48 118.656 112.797 119.2C112.125 119.733 111.176 120 109.949 120H105.037ZM106.653 118.704H109.773C110.53 118.704 111.122 118.56 111.549 118.272C111.986 117.984 112.205 117.499 112.205 116.816C112.205 116.133 111.986 115.648 111.549 115.36C111.122 115.072 110.53 114.928 109.773 114.928H106.653V118.704ZM106.653 113.648H109.485C110.296 113.648 110.904 113.493 111.309 113.184C111.714 112.875 111.917 112.421 111.917 111.824C111.917 111.227 111.714 110.773 111.309 110.464C110.904 110.155 110.296 110 109.485 110H106.653V113.648ZM115.846 120V108.224H117.462V120H115.846ZM123.286 120.144C122.486 120.144 121.793 119.979 121.206 119.648C120.62 119.307 120.166 118.827 119.846 118.208C119.526 117.579 119.366 116.832 119.366 115.968C119.366 115.104 119.526 114.363 119.846 113.744C120.166 113.115 120.62 112.635 121.206 112.304C121.793 111.963 122.486 111.792 123.286 111.792C124.086 111.792 124.78 111.963 125.366 112.304C125.964 112.635 126.422 113.115 126.742 113.744C127.073 114.363 127.238 115.104 127.238 115.968C127.238 116.832 127.073 117.579 126.742 118.208C126.422 118.827 125.964 119.307 125.366 119.648C124.78 119.979 124.086 120.144 123.286 120.144ZM123.286 118.88C123.99 118.88 124.55 118.635 124.966 118.144C125.382 117.653 125.59 116.928 125.59 115.968C125.59 115.008 125.382 114.288 124.966 113.808C124.55 113.317 123.99 113.072 123.286 113.072C122.593 113.072 122.038 113.317 121.622 113.808C121.206 114.288 120.998 115.008 120.998 115.968C120.998 116.928 121.201 117.653 121.606 118.144C122.022 118.635 122.582 118.88 123.286 118.88ZM132.583 120.144C131.783 120.144 131.09 119.979 130.503 119.648C129.917 119.307 129.463 118.827 129.143 118.208C128.823 117.579 128.663 116.832 128.663 115.968C128.663 115.104 128.823 114.363 129.143 113.744C129.463 113.115 129.917 112.635 130.503 112.304C131.09 111.963 131.783 111.792 132.583 111.792C133.383 111.792 134.077 111.963 134.663 112.304C135.261 112.635 135.719 113.115 136.039 113.744C136.37 114.363 136.535 115.104 136.535 115.968C136.535 116.832 136.37 117.579 136.039 118.208C135.719 118.827 135.261 119.307 134.663 119.648C134.077 119.979 133.383 120.144 132.583 120.144ZM132.583 118.88C133.287 118.88 133.847 118.635 134.263 118.144C134.679 117.653 134.887 116.928 134.887 115.968C134.887 115.008 134.679 114.288 134.263 113.808C133.847 113.317 133.287 113.072 132.583 113.072C131.89 113.072 131.335 113.317 130.919 113.808C130.503 114.288 130.295 115.008 130.295 115.968C130.295 116.928 130.498 117.653 130.903 118.144C131.319 118.635 131.879 118.88 132.583 118.88ZM141.512 120.144C140.808 120.144 140.184 119.979 139.64 119.648C139.107 119.317 138.691 118.837 138.392 118.208C138.104 117.579 137.96 116.832 137.96 115.968C137.96 115.093 138.104 114.347 138.392 113.728C138.691 113.109 139.107 112.635 139.64 112.304C140.184 111.963 140.808 111.792 141.512 111.792C142.206 111.792 142.814 111.968 143.336 112.32C143.87 112.661 144.222 113.131 144.392 113.728H144.2V108.224H145.816V120H144.216V118.176H144.408C144.227 118.784 143.875 119.264 143.352 119.616C142.83 119.968 142.216 120.144 141.512 120.144ZM141.912 118.88C142.606 118.88 143.166 118.635 143.592 118.144C144.019 117.653 144.232 116.928 144.232 115.968C144.232 115.008 144.019 114.288 143.592 113.808C143.166 113.317 142.606 113.072 141.912 113.072C141.208 113.072 140.643 113.317 140.216 113.808C139.8 114.288 139.592 115.008 139.592 115.968C139.592 116.928 139.8 117.653 140.216 118.144C140.643 118.635 141.208 118.88 141.912 118.88ZM156.392 120.144C155.485 120.144 154.664 120.032 153.928 119.808C153.192 119.573 152.552 119.243 152.008 118.816L152.568 117.504C152.93 117.781 153.304 118.011 153.688 118.192C154.082 118.373 154.498 118.512 154.936 118.608C155.384 118.693 155.869 118.736 156.392 118.736C157.288 118.736 157.944 118.576 158.36 118.256C158.786 117.936 159 117.515 159 116.992C159 116.544 158.85 116.197 158.552 115.952C158.264 115.707 157.752 115.509 157.016 115.36L155.272 115.008C154.237 114.795 153.464 114.448 152.952 113.968C152.45 113.477 152.2 112.811 152.2 111.968C152.2 111.285 152.381 110.688 152.744 110.176C153.106 109.664 153.608 109.269 154.248 108.992C154.898 108.715 155.656 108.576 156.52 108.576C157.32 108.576 158.056 108.693 158.728 108.928C159.4 109.152 159.965 109.488 160.424 109.936L159.88 111.2C159.4 110.784 158.888 110.48 158.344 110.288C157.8 110.085 157.181 109.984 156.488 109.984C155.666 109.984 155.021 110.155 154.552 110.496C154.093 110.837 153.864 111.301 153.864 111.888C153.864 112.357 154.008 112.725 154.296 112.992C154.594 113.259 155.085 113.461 155.768 113.6L157.512 113.936C158.589 114.16 159.384 114.507 159.896 114.976C160.408 115.435 160.664 116.069 160.664 116.88C160.664 117.531 160.488 118.101 160.136 118.592C159.794 119.083 159.304 119.467 158.664 119.744C158.024 120.011 157.266 120.144 156.392 120.144ZM165.429 120.144C164.458 120.144 163.727 119.883 163.237 119.36C162.757 118.827 162.517 118.011 162.517 116.912V111.936H164.133V116.88C164.133 117.552 164.271 118.048 164.549 118.368C164.826 118.688 165.247 118.848 165.813 118.848C166.453 118.848 166.97 118.635 167.365 118.208C167.759 117.781 167.957 117.216 167.957 116.512V111.936H169.573V120H168.005V118.272H168.213C167.989 118.869 167.631 119.333 167.141 119.664C166.65 119.984 166.079 120.144 165.429 120.144ZM175.572 123.584C174.846 123.584 174.185 123.499 173.588 123.328C173.001 123.157 172.473 122.901 172.004 122.56L172.404 121.376C172.734 121.6 173.06 121.776 173.38 121.904C173.7 122.043 174.036 122.144 174.388 122.208C174.74 122.272 175.102 122.304 175.476 122.304C176.244 122.304 176.82 122.107 177.204 121.712C177.598 121.328 177.796 120.768 177.796 120.032V117.872H177.956C177.785 118.469 177.433 118.944 176.9 119.296C176.377 119.637 175.769 119.808 175.076 119.808C174.34 119.808 173.7 119.648 173.156 119.328C172.622 118.997 172.206 118.533 171.908 117.936C171.62 117.328 171.476 116.613 171.476 115.792C171.476 114.971 171.62 114.261 171.908 113.664C172.206 113.067 172.622 112.608 173.156 112.288C173.7 111.957 174.34 111.792 175.076 111.792C175.78 111.792 176.388 111.968 176.9 112.32C177.422 112.661 177.769 113.131 177.94 113.728L177.796 113.6L177.94 111.936H179.508C179.465 112.267 179.433 112.597 179.412 112.928C179.39 113.248 179.38 113.563 179.38 113.872V119.84C179.38 121.056 179.054 121.984 178.404 122.624C177.764 123.264 176.82 123.584 175.572 123.584ZM175.46 118.544C176.164 118.544 176.724 118.304 177.14 117.824C177.566 117.344 177.78 116.667 177.78 115.792C177.78 114.917 177.566 114.245 177.14 113.776C176.724 113.307 176.164 113.072 175.46 113.072C174.734 113.072 174.158 113.307 173.732 113.776C173.316 114.245 173.108 114.917 173.108 115.792C173.108 116.667 173.316 117.344 173.732 117.824C174.158 118.304 174.734 118.544 175.46 118.544ZM184.825 120.144C184.11 120.144 183.486 119.979 182.953 119.648C182.419 119.317 182.003 118.837 181.705 118.208C181.417 117.579 181.273 116.832 181.273 115.968C181.273 115.093 181.417 114.347 181.705 113.728C182.003 113.109 182.419 112.635 182.953 112.304C183.486 111.963 184.11 111.792 184.825 111.792C185.529 111.792 186.142 111.968 186.665 112.32C187.187 112.672 187.534 113.152 187.705 113.76H187.529L187.689 111.936H189.257C189.225 112.267 189.193 112.597 189.161 112.928C189.139 113.248 189.129 113.563 189.129 113.872V120H187.513V118.208H187.689C187.518 118.805 187.166 119.28 186.633 119.632C186.11 119.973 185.507 120.144 184.825 120.144ZM185.225 118.88C185.918 118.88 186.473 118.635 186.889 118.144C187.315 117.653 187.529 116.928 187.529 115.968C187.529 115.008 187.315 114.288 186.889 113.808C186.473 113.317 185.918 113.072 185.225 113.072C184.521 113.072 183.955 113.317 183.529 113.808C183.113 114.288 182.905 115.008 182.905 115.968C182.905 116.928 183.113 117.653 183.529 118.144C183.945 118.635 184.51 118.88 185.225 118.88ZM191.455 120V113.936C191.455 113.605 191.444 113.275 191.423 112.944C191.412 112.603 191.391 112.267 191.359 111.936H192.927L193.103 114.016H192.847C192.953 113.515 193.135 113.099 193.391 112.768C193.647 112.437 193.956 112.192 194.319 112.032C194.692 111.872 195.081 111.792 195.487 111.792C195.657 111.792 195.801 111.803 195.919 111.824C196.036 111.835 196.153 111.856 196.271 111.888L196.255 113.328C196.073 113.253 195.913 113.211 195.775 113.2C195.647 113.179 195.487 113.168 195.295 113.168C194.825 113.168 194.425 113.275 194.095 113.488C193.764 113.691 193.513 113.968 193.343 114.32C193.172 114.672 193.087 115.051 193.087 115.456V120H191.455Z" fill="black"/>
<path d="M184.292 140V132.799C184.292 132.406 184.279 132.007 184.254 131.602C184.229 131.197 184.191 130.798 184.14 130.405H186.439L186.629 132.305H186.401C186.667 131.646 187.072 131.133 187.617 130.766C188.174 130.399 188.833 130.215 189.593 130.215C190.353 130.215 190.98 130.399 191.474 130.766C191.981 131.121 192.335 131.678 192.538 132.438H192.234C192.5 131.754 192.937 131.216 193.545 130.823C194.153 130.418 194.85 130.215 195.635 130.215C196.712 130.215 197.516 130.532 198.048 131.165C198.58 131.798 198.846 132.786 198.846 134.129V140H196.471V134.224C196.471 133.464 196.344 132.919 196.091 132.59C195.838 132.248 195.432 132.077 194.875 132.077C194.216 132.077 193.697 132.311 193.317 132.78C192.937 133.236 192.747 133.857 192.747 134.642V140H190.372V134.224C190.372 133.464 190.245 132.919 189.992 132.59C189.739 132.248 189.333 132.077 188.776 132.077C188.117 132.077 187.598 132.311 187.218 132.78C186.851 133.236 186.667 133.857 186.667 134.642V140H184.292ZM205.827 144.256C204.94 144.256 204.136 144.161 203.414 143.971C202.705 143.781 202.071 143.49 201.514 143.097L202.027 141.387C202.394 141.628 202.774 141.824 203.167 141.976C203.56 142.128 203.965 142.242 204.383 142.318C204.801 142.394 205.225 142.432 205.656 142.432C206.543 142.432 207.201 142.21 207.632 141.767C208.075 141.336 208.297 140.716 208.297 139.905V137.606H208.487C208.284 138.265 207.873 138.79 207.252 139.183C206.644 139.576 205.941 139.772 205.143 139.772C204.282 139.772 203.528 139.582 202.882 139.202C202.249 138.809 201.755 138.252 201.4 137.53C201.045 136.808 200.868 135.959 200.868 134.984C200.868 134.009 201.045 133.166 201.4 132.457C201.755 131.735 202.249 131.184 202.882 130.804C203.528 130.411 204.282 130.215 205.143 130.215C205.954 130.215 206.657 130.411 207.252 130.804C207.86 131.184 208.265 131.703 208.468 132.362L208.297 132.248L208.487 130.405H210.786C210.735 130.798 210.697 131.197 210.672 131.602C210.647 132.007 210.634 132.406 210.634 132.799V139.62C210.634 141.127 210.222 142.274 209.399 143.059C208.588 143.857 207.398 144.256 205.827 144.256ZM205.789 137.948C206.549 137.948 207.151 137.695 207.594 137.188C208.05 136.669 208.278 135.934 208.278 134.984C208.278 134.034 208.05 133.306 207.594 132.799C207.151 132.292 206.549 132.039 205.789 132.039C205.016 132.039 204.402 132.292 203.946 132.799C203.49 133.306 203.262 134.034 203.262 134.984C203.262 135.934 203.49 136.669 203.946 137.188C204.402 137.695 205.016 137.948 205.789 137.948ZM218.604 141.121H216.647L221.644 125.712H223.601L218.604 141.121ZM233.364 140.19C232.528 140.19 231.787 139.994 231.141 139.601C230.507 139.196 230.013 138.619 229.659 137.872C229.304 137.125 229.127 136.232 229.127 135.193C229.127 134.154 229.304 133.268 229.659 132.533C230.013 131.786 230.507 131.216 231.141 130.823C231.787 130.418 232.528 130.215 233.364 130.215C234.162 130.215 234.865 130.411 235.473 130.804C236.093 131.184 236.505 131.703 236.708 132.362H236.461V126.016H238.836V140H236.499V137.967H236.727C236.524 138.651 236.112 139.196 235.492 139.601C234.884 139.994 234.174 140.19 233.364 140.19ZM234.029 138.366C234.776 138.366 235.378 138.106 235.834 137.587C236.29 137.055 236.518 136.257 236.518 135.193C236.518 134.129 236.29 133.337 235.834 132.818C235.378 132.299 234.776 132.039 234.029 132.039C233.281 132.039 232.673 132.299 232.205 132.818C231.749 133.337 231.521 134.129 231.521 135.193C231.521 136.257 231.749 137.055 232.205 137.587C232.673 138.106 233.281 138.366 234.029 138.366ZM241.612 140V126.605H244.063V137.929H250.371V140H241.612Z" fill="#818181"/>
<path d="M78.7015 253.612C53.1588 256.045 22 283.129 22 283.129V316H293V246.232C293 246.232 271.994 254.589 257.978 253.612C229.5 251.625 232.834 213.255 204.612 209.336C167.129 204.13 167.373 261.115 129.566 263.943C109.258 265.462 98.9648 251.681 78.7015 253.612Z" fill="url(#paint0_linear_27_212)"/>
<path d="M22.0657 286.24C22.0657 286.24 53.217 261.308 78.7535 259.068C99.0118 257.291 109.303 269.977 129.606 268.578C167.404 265.975 167.16 213.517 204.634 218.309C232.849 221.917 229.515 257.239 257.987 259.068C271.999 259.968 293 252.275 293 252.275" stroke="#CA6629" stroke-linecap="round"/>
<rect x="22" y="41" width="70.177" height="66" rx="12" fill="#DF9B57"/>
<path d="M65.4799 56.1754H49.4639C48.5689 56.1754 47.8152 56.8842 47.8152 57.7259V75.0037C47.8152 75.8455 48.5689 76.5543 49.4639 76.5543H65.4799C66.3749 76.5543 67.1286 75.8455 67.1286 75.0037V57.7259C67.1286 56.8842 66.3749 56.1754 65.4799 56.1754ZM53.4679 69.909H49.6994V68.5799H53.4679V69.909ZM59.5917 69.909H55.3521V68.5799H59.5917V69.909ZM65.2444 69.909H61.4759V68.5799H65.2444V69.909Z" fill="#040404"/>
<path d="M67.3642 53.5172H47.5798C46.1666 53.5172 44.989 54.6248 44.989 55.9539V77.5733C44.989 78.858 45.5071 80.0542 46.4021 80.9845L48.8045 83.4655L48.8516 83.5098C50.5003 85.1932 50.6888 85.3705 51.1127 85.3705H54.8812V91.2183L55.5407 93.3448H59.4505L60.1099 91.2183V85.4148H63.8784C64.3024 85.4148 64.4908 85.2375 66.1395 83.5541L68.589 80.9845C69.484 80.0542 70.0022 78.8137 70.0022 77.5733V55.9539C69.9551 54.6248 68.7774 53.5172 67.3642 53.5172ZM52.0548 84.0857V82.7566H54.8812V84.0857H52.0548ZM58.1786 89.845V87.1868H56.7654V89.845H56.2944V82.7566H58.6497V89.845H58.1786ZM56.577 92.0601L56.2944 91.174H58.6026L58.3199 92.0601H56.577ZM60.0628 82.7566H62.8892V84.0857H60.0628V82.7566ZM68.5419 77.5733C68.5419 78.5036 68.1651 79.3897 67.5056 80.0985L65.1032 82.5794L65.0561 82.6237C64.8205 82.8895 64.5379 83.1553 64.3024 83.3769V82.0478C64.3024 81.6934 63.9726 81.3833 63.5958 81.3833H51.3482C50.9714 81.3833 50.6417 81.6934 50.6417 82.0478V83.3769C50.4061 83.111 50.1235 82.8452 49.888 82.6237L47.4385 80.0985C46.779 79.3897 46.4021 78.5036 46.4021 77.5733V55.9539C46.4021 55.3336 46.9203 54.8463 47.5798 54.8463H67.3642C68.0237 54.8463 68.5419 55.3336 68.5419 55.9539V77.5733Z" fill="#040404"/>
<path d="M52.2626 78.081C51.6003 78.7038 51.3915 79.5173 51.7962 79.8979C52.2009 80.2785 53.0659 80.0821 53.7281 79.4593C54.3904 78.8365 54.5992 78.023 54.1945 77.6424C53.7897 77.2618 52.9248 77.4581 52.2626 78.081Z" fill="#040404"/>
<path d="M60.7439 78.0807C60.0816 78.7035 59.8729 79.5169 60.2776 79.8976C60.6823 80.2782 61.5472 80.0818 62.2095 79.459C62.8717 78.8362 63.0805 78.0227 62.6758 77.6421C62.2711 77.2615 61.4061 77.4578 60.7439 78.0807Z" fill="#040404"/>
<path d="M56.5044 78.0807C55.8422 78.7035 55.6334 79.5169 56.0381 79.8976C56.4428 80.2782 57.3078 80.0818 57.97 79.459C58.6323 78.8362 58.841 78.0227 58.4363 77.6421C58.0316 77.2615 57.1667 77.4578 56.5044 78.0807Z" fill="#040404"/>
<rect x="22" y="211" width="82" height="24" rx="4" fill="#F8DEBD"/>
</g>
<defs>
<filter id="filter0_d_27_212" x="-50" y="-49" width="393" height="427" filterUnits="userSpaceOnUse" color-interpolation-filters="sRGB">
<feFlood flood-opacity="0" result="BackgroundImageFix"/>
<feColorMatrix in="SourceAlpha" type="matrix" values="0 0 0 0 0 0 0 0 0 0 0 0 0 0 0 0 0 0 127 0" result="hardAlpha"/>
<feOffset dy="1"/>
<feGaussianBlur stdDeviation="25"/>
<feComposite in2="hardAlpha" operator="out"/>
<feColorMatrix type="matrix" values="0 0 0 0 0 0 0 0 0 0 0 0 0 0 0 0 0 0 0.08 0"/>
<feBlend mode="normal" in2="BackgroundImageFix" result="effect1_dropShadow_27_212"/>
<feBlend mode="normal" in="SourceGraphic" in2="effect1_dropShadow_27_212" result="shape"/>
</filter>
<linearGradient id="paint0_linear_27_212" x1="157.5" y1="209" x2="157.5" y2="316" gradientUnits="userSpaceOnUse">
<stop stop-color="#F8DEBD"/>
<stop offset="0.0359998" stop-color="#A13D29" stop-opacity="0.959"/>
<stop offset="1" stop-color="#CA5D1A" stop-opacity="0"/>
</linearGradient>
<clipPath id="clip0_27_212">
<rect width="293" height="327" fill="white"/>
</clipPath>
</defs>
</svg>
