<svg width="366" height="315" viewBox="0 0 366 315" fill="none" xmlns="http://www.w3.org/2000/svg">
<g clip-path="url(#clip0_27_50)">
<rect width="366" height="315" rx="15" fill="#1E1E1E"/>
<path d="M103.437 127.255C103.437 130.137 100.92 132.674 97.5595 132.674C94.1986 132.674 91.682 130.137 91.682 127.255C91.682 124.374 94.1986 121.837 97.5595 121.837C100.92 121.837 103.437 124.374 103.437 127.255Z" stroke="white" stroke-width="4"/>
<g clip-path="url(#clip1_27_50)">
<path d="M282.608 141.088L282.779 141.031V140.85V134.745C282.779 134.306 282.964 133.881 283.299 133.565C283.635 133.249 284.093 133.069 284.574 133.069C285.055 133.069 285.513 133.249 285.849 133.565C286.184 133.881 286.369 134.306 286.369 134.745V140.85V141.031L286.54 141.088C287.69 141.471 288.684 142.179 289.384 143.113C290.085 144.047 290.46 145.161 290.459 146.301C290.459 147.311 290.163 148.303 289.604 149.168C289.045 150.033 288.242 150.738 287.283 151.205C286.323 151.673 285.245 151.883 284.166 151.812C283.087 151.742 282.05 151.394 281.169 150.807C280.288 150.22 279.598 149.417 279.171 148.489C278.744 147.561 278.597 146.541 278.744 145.54C278.892 144.539 279.329 143.594 280.01 142.809C280.69 142.023 281.589 141.427 282.608 141.088Z" fill="#F8910B" stroke="black" stroke-width="0.5"/>
<mask id="path-6-inside-1_27_50" fill="white">
<path d="M274.348 107.782C274.348 105.228 275.426 102.779 277.343 100.973C279.261 99.1667 281.862 98.1522 284.574 98.1522C287.286 98.1522 289.887 99.1667 291.805 100.973C293.722 102.779 294.8 105.228 294.8 107.782V136.864C296.772 138.76 298.107 141.163 298.636 143.77C299.165 146.378 298.864 149.074 297.772 151.522C296.68 153.969 294.845 156.058 292.497 157.528C290.149 158.997 287.393 159.781 284.574 159.781C281.755 159.781 278.999 158.997 276.651 157.528C274.303 156.058 272.468 153.969 271.376 151.522C270.284 149.074 269.984 146.378 270.512 143.77C271.041 141.163 272.376 138.76 274.348 136.864V107.782ZM284.574 102.004C282.947 102.004 281.386 102.613 280.236 103.696C279.085 104.78 278.439 106.25 278.439 107.782V138.547L277.756 139.125C276.212 140.425 275.124 142.136 274.635 144.031C274.146 145.926 274.28 147.917 275.019 149.739C275.758 151.561 277.067 153.128 278.773 154.235C280.479 155.341 282.501 155.933 284.572 155.933C286.643 155.933 288.665 155.341 290.371 154.235C292.077 153.128 293.386 151.561 294.125 149.739C294.864 147.917 294.998 145.926 294.509 144.031C294.02 142.136 292.932 140.425 291.388 139.125L290.709 138.543V107.782C290.709 106.25 290.063 104.78 288.912 103.696C287.762 102.613 286.201 102.004 284.574 102.004ZM305.025 105.856C305.568 105.856 306.088 106.059 306.471 106.42C306.855 106.781 307.07 107.271 307.07 107.782V112.762L309.713 110.27C310.097 109.909 310.617 109.705 311.161 109.705C311.704 109.705 312.224 109.909 312.608 110.27C312.993 110.632 313.208 111.122 313.208 111.634C313.208 112.145 312.993 112.636 312.608 112.997L307.07 118.209V125.632L313.897 121.922L315.922 114.796C315.991 114.552 316.112 114.323 316.275 114.122C316.439 113.922 316.643 113.754 316.876 113.627C317.109 113.501 317.366 113.419 317.632 113.387C317.899 113.354 318.169 113.371 318.429 113.437C318.688 113.502 318.931 113.616 319.144 113.77C319.357 113.924 319.536 114.116 319.67 114.336C319.804 114.555 319.891 114.797 319.926 115.048C319.961 115.299 319.943 115.553 319.873 115.798L318.903 119.195L323.484 116.707C323.954 116.455 324.51 116.389 325.031 116.522C325.552 116.656 325.996 116.978 326.266 117.418C326.536 117.858 326.61 118.382 326.472 118.873C326.334 119.365 325.995 119.785 325.53 120.043L320.948 122.531L324.564 123.444C324.824 123.51 325.067 123.623 325.28 123.777C325.493 123.931 325.671 124.124 325.805 124.343C325.94 124.562 326.026 124.804 326.061 125.055C326.096 125.306 326.078 125.561 326.008 125.805C325.938 126.049 325.818 126.278 325.654 126.479C325.49 126.679 325.286 126.848 325.053 126.974C324.821 127.1 324.564 127.182 324.297 127.215C324.031 127.247 323.76 127.23 323.501 127.165L315.942 125.258L309.115 128.967L315.942 132.677L323.505 130.77C323.766 130.7 324.039 130.68 324.309 130.71C324.578 130.74 324.839 130.821 325.075 130.947C325.311 131.073 325.518 131.242 325.684 131.445C325.85 131.647 325.971 131.878 326.041 132.125C326.111 132.372 326.129 132.63 326.092 132.883C326.055 133.136 325.965 133.38 325.827 133.6C325.689 133.821 325.506 134.013 325.289 134.166C325.071 134.319 324.824 134.429 324.56 134.491L320.948 135.404L325.53 137.892C325.995 138.149 326.334 138.57 326.472 139.061C326.61 139.553 326.536 140.076 326.266 140.517C325.996 140.957 325.552 141.279 325.031 141.412C324.51 141.546 323.954 141.479 323.484 141.228L318.903 138.74L319.873 142.141C319.947 142.387 319.969 142.644 319.937 142.898C319.904 143.152 319.819 143.397 319.685 143.619C319.551 143.842 319.371 144.037 319.156 144.193C318.942 144.349 318.696 144.464 318.434 144.53C318.171 144.596 317.898 144.612 317.629 144.577C317.36 144.542 317.101 144.458 316.867 144.328C316.633 144.198 316.429 144.026 316.267 143.821C316.105 143.616 315.987 143.383 315.922 143.135L313.901 136.016L307.07 132.303V139.726L312.608 144.937C312.799 145.116 312.949 145.329 313.052 145.563C313.155 145.797 313.208 146.048 313.208 146.301C313.208 146.554 313.155 146.805 313.052 147.039C312.949 147.273 312.799 147.485 312.608 147.665C312.418 147.844 312.193 147.986 311.944 148.083C311.696 148.179 311.429 148.229 311.161 148.229C310.892 148.229 310.625 148.179 310.377 148.083C310.128 147.986 309.903 147.844 309.713 147.665L307.07 145.172V150.153C307.07 150.664 306.855 151.154 306.471 151.515C306.088 151.876 305.568 152.079 305.025 152.079C304.483 152.079 303.963 151.876 303.579 151.515C303.196 151.154 302.98 150.664 302.98 150.153V107.782C302.98 107.271 303.196 106.781 303.579 106.42C303.963 106.059 304.483 105.856 305.025 105.856Z"/>
</mask>
<path d="M274.348 107.782C274.348 105.228 275.426 102.779 277.343 100.973C279.261 99.1667 281.862 98.1522 284.574 98.1522C287.286 98.1522 289.887 99.1667 291.805 100.973C293.722 102.779 294.8 105.228 294.8 107.782V136.864C296.772 138.76 298.107 141.163 298.636 143.77C299.165 146.378 298.864 149.074 297.772 151.522C296.68 153.969 294.845 156.058 292.497 157.528C290.149 158.997 287.393 159.781 284.574 159.781C281.755 159.781 278.999 158.997 276.651 157.528C274.303 156.058 272.468 153.969 271.376 151.522C270.284 149.074 269.984 146.378 270.512 143.77C271.041 141.163 272.376 138.76 274.348 136.864V107.782ZM284.574 102.004C282.947 102.004 281.386 102.613 280.236 103.696C279.085 104.78 278.439 106.25 278.439 107.782V138.547L277.756 139.125C276.212 140.425 275.124 142.136 274.635 144.031C274.146 145.926 274.28 147.917 275.019 149.739C275.758 151.561 277.067 153.128 278.773 154.235C280.479 155.341 282.501 155.933 284.572 155.933C286.643 155.933 288.665 155.341 290.371 154.235C292.077 153.128 293.386 151.561 294.125 149.739C294.864 147.917 294.998 145.926 294.509 144.031C294.02 142.136 292.932 140.425 291.388 139.125L290.709 138.543V107.782C290.709 106.25 290.063 104.78 288.912 103.696C287.762 102.613 286.201 102.004 284.574 102.004ZM305.025 105.856C305.568 105.856 306.088 106.059 306.471 106.42C306.855 106.781 307.07 107.271 307.07 107.782V112.762L309.713 110.27C310.097 109.909 310.617 109.705 311.161 109.705C311.704 109.705 312.224 109.909 312.608 110.27C312.993 110.632 313.208 111.122 313.208 111.634C313.208 112.145 312.993 112.636 312.608 112.997L307.07 118.209V125.632L313.897 121.922L315.922 114.796C315.991 114.552 316.112 114.323 316.275 114.122C316.439 113.922 316.643 113.754 316.876 113.627C317.109 113.501 317.366 113.419 317.632 113.387C317.899 113.354 318.169 113.371 318.429 113.437C318.688 113.502 318.931 113.616 319.144 113.77C319.357 113.924 319.536 114.116 319.67 114.336C319.804 114.555 319.891 114.797 319.926 115.048C319.961 115.299 319.943 115.553 319.873 115.798L318.903 119.195L323.484 116.707C323.954 116.455 324.51 116.389 325.031 116.522C325.552 116.656 325.996 116.978 326.266 117.418C326.536 117.858 326.61 118.382 326.472 118.873C326.334 119.365 325.995 119.785 325.53 120.043L320.948 122.531L324.564 123.444C324.824 123.51 325.067 123.623 325.28 123.777C325.493 123.931 325.671 124.124 325.805 124.343C325.94 124.562 326.026 124.804 326.061 125.055C326.096 125.306 326.078 125.561 326.008 125.805C325.938 126.049 325.818 126.278 325.654 126.479C325.49 126.679 325.286 126.848 325.053 126.974C324.821 127.1 324.564 127.182 324.297 127.215C324.031 127.247 323.76 127.23 323.501 127.165L315.942 125.258L309.115 128.967L315.942 132.677L323.505 130.77C323.766 130.7 324.039 130.68 324.309 130.71C324.578 130.74 324.839 130.821 325.075 130.947C325.311 131.073 325.518 131.242 325.684 131.445C325.85 131.647 325.971 131.878 326.041 132.125C326.111 132.372 326.129 132.63 326.092 132.883C326.055 133.136 325.965 133.38 325.827 133.6C325.689 133.821 325.506 134.013 325.289 134.166C325.071 134.319 324.824 134.429 324.56 134.491L320.948 135.404L325.53 137.892C325.995 138.149 326.334 138.57 326.472 139.061C326.61 139.553 326.536 140.076 326.266 140.517C325.996 140.957 325.552 141.279 325.031 141.412C324.51 141.546 323.954 141.479 323.484 141.228L318.903 138.74L319.873 142.141C319.947 142.387 319.969 142.644 319.937 142.898C319.904 143.152 319.819 143.397 319.685 143.619C319.551 143.842 319.371 144.037 319.156 144.193C318.942 144.349 318.696 144.464 318.434 144.53C318.171 144.596 317.898 144.612 317.629 144.577C317.36 144.542 317.101 144.458 316.867 144.328C316.633 144.198 316.429 144.026 316.267 143.821C316.105 143.616 315.987 143.383 315.922 143.135L313.901 136.016L307.07 132.303V139.726L312.608 144.937C312.799 145.116 312.949 145.329 313.052 145.563C313.155 145.797 313.208 146.048 313.208 146.301C313.208 146.554 313.155 146.805 313.052 147.039C312.949 147.273 312.799 147.485 312.608 147.665C312.418 147.844 312.193 147.986 311.944 148.083C311.696 148.179 311.429 148.229 311.161 148.229C310.892 148.229 310.625 148.179 310.377 148.083C310.128 147.986 309.903 147.844 309.713 147.665L307.07 145.172V150.153C307.07 150.664 306.855 151.154 306.471 151.515C306.088 151.876 305.568 152.079 305.025 152.079C304.483 152.079 303.963 151.876 303.579 151.515C303.196 151.154 302.98 150.664 302.98 150.153V107.782C302.98 107.271 303.196 106.781 303.579 106.42C303.963 106.059 304.483 105.856 305.025 105.856Z" fill="#F8910B" stroke="black" mask="url(#path-6-inside-1_27_50)"/>
</g>
<rect x="267.122" y="98.6522" width="64.4437" height="60.6304" stroke="black"/>
<path d="M20.0657 239.31V237.75H23.1857V248.685H21.4607V239.31H20.0657ZM25.5348 243.075C25.5348 241.345 25.8248 239.995 26.4048 239.025C26.9948 238.045 28.0048 237.555 29.4348 237.555C30.8648 237.555 31.8698 238.045 32.4498 239.025C33.0398 239.995 33.3348 241.345 33.3348 243.075C33.3348 244.825 33.0398 246.195 32.4498 247.185C31.8698 248.165 30.8648 248.655 29.4348 248.655C28.0048 248.655 26.9948 248.165 26.4048 247.185C25.8248 246.195 25.5348 244.825 25.5348 243.075ZM31.6548 243.075C31.6548 242.265 31.5998 241.58 31.4898 241.02C31.3898 240.46 31.1798 240.005 30.8598 239.655C30.5398 239.295 30.0648 239.115 29.4348 239.115C28.8048 239.115 28.3298 239.295 28.0098 239.655C27.6898 240.005 27.4748 240.46 27.3648 241.02C27.2648 241.58 27.2148 242.265 27.2148 243.075C27.2148 243.915 27.2648 244.62 27.3648 245.19C27.4648 245.76 27.6748 246.22 27.9948 246.57C28.3248 246.92 28.8048 247.095 29.4348 247.095C30.0648 247.095 30.5398 246.92 30.8598 246.57C31.1898 246.22 31.4048 245.76 31.5048 245.19C31.6048 244.62 31.6548 243.915 31.6548 243.075ZM42.5922 243.45C42.5922 242.43 42.8272 241.515 43.2972 240.705C43.7772 239.895 44.4222 239.265 45.2322 238.815C46.0522 238.355 46.9472 238.125 47.9172 238.125C49.0272 238.125 50.0122 238.4 50.8722 238.95C51.7422 239.49 52.3722 240.26 52.7622 241.26H50.7072C50.4372 240.71 50.0622 240.3 49.5822 240.03C49.1022 239.76 48.5472 239.625 47.9172 239.625C47.2272 239.625 46.6122 239.78 46.0722 240.09C45.5322 240.4 45.1072 240.845 44.7972 241.425C44.4972 242.005 44.3472 242.68 44.3472 243.45C44.3472 244.22 44.4972 244.895 44.7972 245.475C45.1072 246.055 45.5322 246.505 46.0722 246.825C46.6122 247.135 47.2272 247.29 47.9172 247.29C48.5472 247.29 49.1022 247.155 49.5822 246.885C50.0622 246.615 50.4372 246.205 50.7072 245.655H52.7622C52.3722 246.655 51.7422 247.425 50.8722 247.965C50.0122 248.505 49.0272 248.775 47.9172 248.775C46.9372 248.775 46.0422 248.55 45.2322 248.1C44.4222 247.64 43.7772 247.005 43.2972 246.195C42.8272 245.385 42.5922 244.47 42.5922 243.45Z" fill="#87888C"/>
<path d="M41.9173 241.957C41.9173 242.913 41.0847 243.739 39.9935 243.739C38.9023 243.739 38.0697 242.913 38.0697 241.957C38.0697 241 38.9023 240.174 39.9935 240.174C41.0847 240.174 41.9173 241 41.9173 241.957Z" stroke="#87888C"/>
<path d="M295.187 248.687V247.397L300.227 240.167H302.297V247.202H303.692V248.687H302.297V250.967H300.617V248.687H295.187ZM300.692 241.907L297.152 247.202H300.692V241.907ZM305.109 245.357C305.109 243.627 305.399 242.277 305.979 241.307C306.569 240.327 307.579 239.837 309.009 239.837C310.439 239.837 311.444 240.327 312.024 241.307C312.614 242.277 312.909 243.627 312.909 245.357C312.909 247.107 312.614 248.477 312.024 249.467C311.444 250.447 310.439 250.937 309.009 250.937C307.579 250.937 306.569 250.447 305.979 249.467C305.399 248.477 305.109 247.107 305.109 245.357ZM311.229 245.357C311.229 244.547 311.174 243.862 311.064 243.302C310.964 242.742 310.754 242.287 310.434 241.937C310.114 241.577 309.639 241.397 309.009 241.397C308.379 241.397 307.904 241.577 307.584 241.937C307.264 242.287 307.049 242.742 306.939 243.302C306.839 243.862 306.789 244.547 306.789 245.357C306.789 246.197 306.839 246.902 306.939 247.472C307.039 248.042 307.249 248.502 307.569 248.852C307.899 249.202 308.379 249.377 309.009 249.377C309.639 249.377 310.114 249.202 310.434 248.852C310.764 248.502 310.979 248.042 311.079 247.472C311.179 246.902 311.229 246.197 311.229 245.357ZM322.166 245.732C322.166 244.712 322.401 243.797 322.871 242.987C323.351 242.177 323.996 241.547 324.806 241.097C325.626 240.637 326.521 240.407 327.491 240.407C328.601 240.407 329.586 240.682 330.446 241.232C331.316 241.772 331.946 242.542 332.336 243.542H330.281C330.011 242.992 329.636 242.582 329.156 242.312C328.676 242.042 328.121 241.907 327.491 241.907C326.801 241.907 326.186 242.062 325.646 242.372C325.106 242.682 324.681 243.127 324.371 243.707C324.071 244.287 323.921 244.962 323.921 245.732C323.921 246.502 324.071 247.177 324.371 247.757C324.681 248.337 325.106 248.787 325.646 249.107C326.186 249.417 326.801 249.572 327.491 249.572C328.121 249.572 328.676 249.437 329.156 249.167C329.636 248.897 330.011 248.487 330.281 247.937H332.336C331.946 248.937 331.316 249.707 330.446 250.247C329.586 250.787 328.601 251.057 327.491 251.057C326.511 251.057 325.616 250.832 324.806 250.382C323.996 249.922 323.351 249.287 322.871 248.477C322.401 247.667 322.166 246.752 322.166 245.732Z" fill="#87888C"/>
<path d="M323.083 244.239C323.083 245.196 322.25 246.022 321.159 246.022C320.068 246.022 319.235 245.196 319.235 244.239C319.235 243.282 320.068 242.457 321.159 242.457C322.25 242.457 323.083 243.282 323.083 244.239Z" stroke="#87888C"/>
</g>
<defs>
<clipPath id="clip0_27_50">
<rect width="366" height="315" fill="white"/>
</clipPath>
<clipPath id="clip1_27_50">
<rect x="266.622" y="98.1522" width="65.4437" height="61.6304" fill="white"/>
</clipPath>
</defs>
</svg>
